<svg width="41" height="41" viewBox="0 0 41 41" fill="none" xmlns="http://www.w3.org/2000/svg">
<g clip-path="url(#clip0_248_349)">
<path fill-rule="evenodd" clip-rule="evenodd" d="M9.21227 8.03874C9.21227 5.31742 11.4806 3.06581 14.3276 3.06581H19.443V13.0111H14.3275L14.269 13.0113C11.4496 12.9807 9.21227 10.7413 9.21227 8.03874ZM9.98146 14.32C7.93582 12.9581 6.58375 10.6604 6.58375 8.03874C6.58375 3.82518 10.0763 0.448486 14.3276 0.448486H19.4458H22.0715H27.1897C31.441 0.448486 34.9336 3.82518 34.9336 8.03874C34.9336 10.6604 33.5815 12.9581 31.5358 14.3201C33.5815 15.682 34.9336 17.9797 34.9336 20.6014C34.9336 24.8149 31.441 28.1916 27.1897 28.1916C25.2345 28.1916 23.4397 27.4774 22.0714 26.2959V28.1916V33.1654C22.0714 37.3789 18.5788 40.7556 14.3275 40.7556C10.0762 40.7556 6.58362 37.3789 6.58362 33.1654C6.58362 30.5432 7.93617 28.2452 9.98243 26.8834C7.93617 25.5215 6.58362 23.2235 6.58362 20.6014C6.58362 17.9797 7.93574 15.6819 9.98146 14.32ZM27.2483 13.0113C27.2288 13.0112 27.2093 13.0111 27.1897 13.0111C27.1589 13.0111 27.1281 13.0113 27.0973 13.0117H22.0743V3.06581H27.1897C30.0367 3.06581 32.3051 5.31742 32.3051 8.03874C32.3051 10.7414 30.0678 12.9807 27.2483 13.0113ZM27.114 15.629C24.3026 15.6685 22.0743 17.9042 22.0743 20.6014C22.0743 23.3227 24.3427 25.5743 27.1897 25.5743C30.0367 25.5743 32.3051 23.3227 32.3051 20.6014C32.3051 17.8988 30.0678 15.6594 27.2483 15.6288C27.2288 15.6289 27.2093 15.629 27.1897 15.629H27.114ZM14.2689 15.6288C11.4494 15.6594 9.21213 17.8988 9.21213 20.6014C9.21213 23.3227 11.4805 25.5743 14.3275 25.5743H19.4429V15.629H14.3276L14.2689 15.6288ZM14.3275 28.1924C11.4805 28.1924 9.21213 30.4441 9.21213 33.1654C9.21213 35.8867 11.4805 38.1383 14.3275 38.1383C17.1745 38.1383 19.4429 35.8867 19.4429 33.1654V28.1924H14.3275Z" fill="white"/>
</g>
<defs>
<clipPath id="clip0_248_349">
<rect width="40.4791" height="40.3069" fill="white" transform="translate(0.520874 0.448486)"/>
</clipPath>
</defs>
</svg>
