<svg width="48" height="47" viewBox="0 0 48 47" fill="none" xmlns="http://www.w3.org/2000/svg">
<g clip-path="url(#clip0_248_359)">
<path d="M43.3346 9.59934L47.0525 6.05769V5.28247H34.1727L24.9934 28.0325L14.5502 5.28247H1.0453V6.05769L5.38839 11.2638C5.81163 11.6485 6.03296 12.2111 5.97666 12.7775V33.2367C6.11062 33.9733 5.86987 34.7311 5.34956 35.2666L0.457031 41.1706V41.9362H14.3289V41.161L9.43637 35.2666C8.90635 34.7292 8.6559 33.9849 8.76268 33.2367V15.5401L20.9396 41.9459H22.355L32.8254 15.5401V36.5754C32.8254 37.1302 32.8254 37.2443 32.4604 37.6077L28.6939 41.2364V42.0135H46.9671V41.2383L43.3365 37.6986C43.0181 37.4589 42.8531 37.0568 42.9211 36.6663V10.6317C42.8531 10.2392 43.0162 9.83712 43.3346 9.59934Z" fill="#F1F1F1"/>
</g>
<defs>
<clipPath id="clip0_248_359">
<rect width="46.5955" height="46.3971" fill="white" transform="translate(0.458252 0.448486)"/>
</clipPath>
</defs>
</svg>
