<svg width="491" height="114" viewBox="0 0 491 114" fill="none" xmlns="http://www.w3.org/2000/svg">
<path d="M6.448 37C5.392 37 4.416 36.744 3.52 36.232C2.656 35.72 1.968 35.032 1.456 34.168C0.944 33.272 0.688 32.296 0.688 31.24V8.2C0.688 7.144 0.944 6.184 1.456 5.32C1.968 4.424 2.656 3.72 3.52 3.208C4.416 2.696 5.392 2.44 6.448 2.44H35.152V6.328H6.448C5.936 6.328 5.488 6.52 5.104 6.904C4.752 7.256 4.576 7.688 4.576 8.2V31.24C4.576 31.752 4.752 32.2 5.104 32.584C5.488 32.936 5.936 33.112 6.448 33.112H35.152V37H6.448ZM39.9648 37V14.968C39.9648 13.912 40.2208 12.952 40.7328 12.088C41.2768 11.192 41.9808 10.488 42.8448 9.976C43.7408 9.432 44.7168 9.16 45.7728 9.16H61.4208V13.096H45.7728C45.2608 13.096 44.8128 13.288 44.4288 13.672C44.0768 14.024 43.9008 14.456 43.9008 14.968V37H39.9648ZM70.2873 37C69.2313 37 68.2553 36.744 67.3593 36.232C66.4953 35.688 65.7913 34.984 65.2473 34.12C64.7353 33.224 64.4793 32.248 64.4793 31.192V14.968C64.4793 13.912 64.7353 12.952 65.2473 12.088C65.7913 11.192 66.4953 10.488 67.3593 9.976C68.2553 9.432 69.2313 9.16 70.2873 9.16H86.9913C88.0793 9.16 89.0553 9.432 89.9193 9.976C90.8153 10.488 91.5193 11.192 92.0312 12.088C92.5753 12.952 92.8473 13.912 92.8473 14.968V25.048H68.4153V31.192C68.4153 31.704 68.5913 32.152 68.9433 32.536C69.3273 32.888 69.7753 33.064 70.2873 33.064H92.8473V37H70.2873ZM68.4153 21.112H88.8633V14.968C88.8633 14.456 88.6713 14.024 88.2873 13.672C87.9353 13.288 87.5033 13.096 86.9913 13.096H70.2873C69.7753 13.096 69.3273 13.288 68.9433 13.672C68.5913 14.024 68.4153 14.456 68.4153 14.968V21.112ZM103.57 37C102.514 37 101.538 36.744 100.642 36.232C99.7776 35.688 99.0736 34.984 98.5296 34.12C98.0176 33.224 97.7616 32.248 97.7616 31.192V21.112H122.146V14.968C122.146 14.456 121.954 14.024 121.57 13.672C121.218 13.288 120.786 13.096 120.274 13.096H97.7616V9.16H120.274C121.362 9.16 122.338 9.432 123.202 9.976C124.098 10.488 124.802 11.192 125.314 12.088C125.858 12.952 126.13 13.912 126.13 14.968V37H103.57ZM103.57 33.064H122.146V25.048H101.698V31.192C101.698 31.704 101.874 32.152 102.226 32.536C102.61 32.888 103.058 33.064 103.57 33.064ZM136.946 37C135.858 37 134.866 36.744 133.97 36.232C133.106 35.688 132.418 34.984 131.906 34.12C131.394 33.224 131.138 32.248 131.138 31.192V0.0399981H135.074V9.16H147.122V13.096H135.074V31.192C135.074 31.704 135.25 32.152 135.602 32.536C135.986 32.888 136.434 33.064 136.946 33.064H147.122V37H136.946ZM156.537 37C155.481 37 154.505 36.744 153.609 36.232C152.745 35.688 152.041 34.984 151.497 34.12C150.985 33.224 150.729 32.248 150.729 31.192V14.968C150.729 13.912 150.985 12.952 151.497 12.088C152.041 11.192 152.745 10.488 153.609 9.976C154.505 9.432 155.481 9.16 156.537 9.16H173.241C174.329 9.16 175.305 9.432 176.169 9.976C177.065 10.488 177.769 11.192 178.281 12.088C178.825 12.952 179.097 13.912 179.097 14.968V25.048H154.665V31.192C154.665 31.704 154.841 32.152 155.193 32.536C155.577 32.888 156.025 33.064 156.537 33.064H179.097V37H156.537ZM154.665 21.112H175.113V14.968C175.113 14.456 174.921 14.024 174.537 13.672C174.185 13.288 173.753 13.096 173.241 13.096H156.537C156.025 13.096 155.577 13.288 155.193 13.672C154.841 14.024 154.665 14.456 154.665 14.968V21.112ZM202.898 37C201.842 37 200.866 36.744 199.97 36.232C199.106 35.688 198.402 34.984 197.858 34.12C197.346 33.224 197.09 32.248 197.09 31.192V21.112H221.474V14.968C221.474 14.456 221.282 14.024 220.898 13.672C220.546 13.288 220.114 13.096 219.602 13.096H197.09V9.16H219.602C220.69 9.16 221.666 9.432 222.53 9.976C223.426 10.488 224.13 11.192 224.642 12.088C225.186 12.952 225.458 13.912 225.458 14.968V37H202.898ZM202.898 33.064H221.474V25.048H201.026V31.192C201.026 31.704 201.202 32.152 201.554 32.536C201.938 32.888 202.386 33.064 202.898 33.064ZM229.811 37V9.16H252.371C253.427 9.16 254.387 9.432 255.251 9.976C256.147 10.488 256.851 11.192 257.363 12.088C257.907 12.952 258.179 13.912 258.179 14.968V37H254.243V14.968C254.243 14.456 254.051 14.024 253.667 13.672C253.315 13.288 252.883 13.096 252.371 13.096H235.667C235.155 13.096 234.707 13.288 234.323 13.672C233.939 14.024 233.747 14.456 233.747 14.968V37H229.811ZM282.023 37C280.967 37 279.991 36.744 279.095 36.232C278.231 35.688 277.527 34.984 276.983 34.12C276.471 33.224 276.215 32.248 276.215 31.192V21.112H300.599V14.968C300.599 14.456 300.407 14.024 300.023 13.672C299.671 13.288 299.239 13.096 298.727 13.096H276.215V9.16H298.727C299.815 9.16 300.791 9.432 301.655 9.976C302.551 10.488 303.255 11.192 303.767 12.088C304.311 12.952 304.583 13.912 304.583 14.968V37H282.023ZM282.023 33.064H300.599V25.048H280.151V31.192C280.151 31.704 280.327 32.152 280.679 32.536C281.063 32.888 281.511 33.064 282.023 33.064ZM314.834 37C313.778 37 312.802 36.744 311.906 36.232C311.042 35.688 310.338 34.984 309.794 34.12C309.282 33.224 309.026 32.248 309.026 31.192V14.968C309.026 13.912 309.282 12.952 309.794 12.088C310.338 11.192 311.042 10.488 311.906 9.976C312.802 9.432 313.778 9.16 314.834 9.16H337.298V13.096H314.834C314.322 13.096 313.874 13.288 313.49 13.672C313.138 14.024 312.962 14.456 312.962 14.968V31.192C312.962 31.704 313.138 32.152 313.49 32.536C313.874 32.888 314.322 33.064 314.834 33.064H337.394V37H314.834ZM348.209 37C347.153 37 346.177 36.744 345.281 36.232C344.417 35.688 343.713 34.984 343.169 34.12C342.657 33.224 342.401 32.248 342.401 31.192V14.968C342.401 13.912 342.657 12.952 343.169 12.088C343.713 11.192 344.417 10.488 345.281 9.976C346.177 9.432 347.153 9.16 348.209 9.16H370.673V13.096H348.209C347.697 13.096 347.249 13.288 346.865 13.672C346.513 14.024 346.337 14.456 346.337 14.968V31.192C346.337 31.704 346.513 32.152 346.865 32.536C347.249 32.888 347.697 33.064 348.209 33.064H370.769V37H348.209ZM381.584 37C380.528 37 379.552 36.744 378.656 36.232C377.792 35.688 377.088 34.984 376.544 34.12C376.032 33.224 375.776 32.248 375.776 31.192V14.968C375.776 13.912 376.032 12.952 376.544 12.088C377.088 11.192 377.792 10.488 378.656 9.976C379.552 9.432 380.528 9.16 381.584 9.16H398.288C399.376 9.16 400.352 9.432 401.216 9.976C402.112 10.488 402.816 11.192 403.328 12.088C403.872 12.952 404.144 13.912 404.144 14.968V31.192C404.144 32.248 403.872 33.224 403.328 34.12C402.816 34.984 402.112 35.688 401.216 36.232C400.352 36.744 399.376 37 398.288 37H381.584ZM381.584 33.064H398.288C398.8 33.064 399.232 32.888 399.584 32.536C399.968 32.152 400.16 31.704 400.16 31.192V14.968C400.16 14.456 399.968 14.024 399.584 13.672C399.232 13.288 398.8 13.096 398.288 13.096H381.584C381.072 13.096 380.624 13.288 380.24 13.672C379.888 14.024 379.712 14.456 379.712 14.968V31.192C379.712 31.704 379.888 32.152 380.24 32.536C380.624 32.888 381.072 33.064 381.584 33.064ZM413.79 37C412.734 37 411.758 36.744 410.862 36.232C409.998 35.688 409.294 34.984 408.75 34.12C408.238 33.224 407.982 32.248 407.982 31.192V9.16H411.918V31.192C411.918 31.704 412.094 32.152 412.446 32.536C412.83 32.888 413.278 33.064 413.79 33.064H430.494C431.006 33.064 431.454 32.888 431.838 32.536C432.222 32.152 432.414 31.704 432.414 31.192V9.16H436.35V31.192C436.35 32.248 436.078 33.224 435.534 34.12C435.022 34.984 434.318 35.688 433.422 36.232C432.558 36.744 431.582 37 430.494 37H413.79ZM441.639 37V9.16H464.199C465.255 9.16 466.215 9.432 467.079 9.976C467.975 10.488 468.679 11.192 469.191 12.088C469.735 12.952 470.007 13.912 470.007 14.968V37H466.071V14.968C466.071 14.456 465.879 14.024 465.495 13.672C465.143 13.288 464.711 13.096 464.199 13.096H447.495C446.983 13.096 446.535 13.288 446.151 13.672C445.767 14.024 445.575 14.456 445.575 14.968V37H441.639ZM480.821 37C479.733 37 478.741 36.744 477.845 36.232C476.981 35.688 476.293 34.984 475.781 34.12C475.269 33.224 475.013 32.248 475.013 31.192V0.0399981H478.949V9.16H490.997V13.096H478.949V31.192C478.949 31.704 479.125 32.152 479.477 32.536C479.861 32.888 480.309 33.064 480.821 33.064H490.997V37H480.821ZM6.352 102C5.296 102 4.32 101.744 3.424 101.232C2.56 100.688 1.856 99.984 1.312 99.12C0.8 98.224 0.544 97.248 0.544 96.192V85.872C0.544 85.168 0.976 84.48 1.84 83.808C2.704 83.104 3.856 82.752 5.296 82.752C3.472 81.376 2.56 79.84 2.56 78.144V73.344C2.56 72.256 2.816 71.28 3.328 70.416C3.872 69.52 4.576 68.816 5.44 68.304C6.336 67.76 7.312 67.488 8.368 67.488H28.096C28.992 67.488 29.84 67.728 30.64 68.208C31.44 68.656 32.128 69.264 32.704 70.032C33.312 70.768 33.728 71.552 33.952 72.384V75.024H29.968V73.392C29.968 72.88 29.776 72.448 29.392 72.096C29.04 71.712 28.608 71.52 28.096 71.52H8.368C7.856 71.52 7.408 71.712 7.024 72.096C6.672 72.448 6.496 72.88 6.496 73.392V80.064L31.504 92.688V86.016H35.44V93.984L41.872 97.776V101.232L35.296 97.536C34.784 98.848 34.016 99.92 32.992 100.752C31.968 101.584 30.848 102 29.632 102H6.352ZM6.352 98.064H29.632C29.952 98.064 30.288 97.904 30.64 97.584C31.024 97.264 31.328 96.848 31.552 96.336L7.072 84H6.352C5.84 84 5.392 84.192 5.008 84.576C4.656 84.928 4.48 85.36 4.48 85.872V96.192C4.48 96.704 4.656 97.152 5.008 97.536C5.392 97.888 5.84 98.064 6.352 98.064ZM64.381 102C63.325 102 62.349 101.744 61.453 101.232C60.589 100.688 59.885 99.984 59.341 99.12C58.829 98.224 58.573 97.248 58.573 96.192V79.968C58.573 78.912 58.829 77.952 59.341 77.088C59.885 76.192 60.589 75.488 61.453 74.976C62.349 74.432 63.325 74.16 64.381 74.16H86.845V78.096H64.381C63.869 78.096 63.421 78.288 63.037 78.672C62.685 79.024 62.509 79.456 62.509 79.968V96.192C62.509 96.704 62.685 97.152 63.037 97.536C63.421 97.888 63.869 98.064 64.381 98.064H86.941V102H64.381ZM91.3889 102V65.04H95.3249V74.16H113.949C115.005 74.16 115.965 74.432 116.829 74.976C117.725 75.488 118.429 76.192 118.941 77.088C119.485 77.952 119.757 78.912 119.757 79.968V102H115.821V79.968C115.821 79.456 115.629 79.024 115.245 78.672C114.893 78.288 114.461 78.096 113.949 78.096H97.2449C96.7329 78.096 96.2849 78.288 95.9009 78.672C95.5169 79.024 95.3249 79.456 95.3249 79.968V102H91.3889ZM129.115 102C128.059 102 127.083 101.744 126.187 101.232C125.323 100.688 124.619 99.984 124.075 99.12C123.563 98.224 123.307 97.248 123.307 96.192V79.968C123.307 78.912 123.563 77.952 124.075 77.088C124.619 76.192 125.323 75.488 126.187 74.976C127.083 74.432 128.059 74.16 129.115 74.16H145.819C146.907 74.16 147.883 74.432 148.747 74.976C149.643 75.488 150.347 76.192 150.859 77.088C151.403 77.952 151.675 78.912 151.675 79.968V96.192C151.675 97.248 151.403 98.224 150.859 99.12C150.347 99.984 149.643 100.688 148.747 101.232C147.883 101.744 146.907 102 145.819 102H129.115ZM129.115 98.064H145.819C146.331 98.064 146.763 97.888 147.115 97.536C147.499 97.152 147.691 96.704 147.691 96.192V79.968C147.691 79.456 147.499 79.024 147.115 78.672C146.763 78.288 146.331 78.096 145.819 78.096H129.115C128.603 78.096 128.155 78.288 127.771 78.672C127.419 79.024 127.243 79.456 127.243 79.968V96.192C127.243 96.704 127.419 97.152 127.771 97.536C128.155 97.888 128.603 98.064 129.115 98.064ZM161.412 102C160.356 102 159.38 101.744 158.484 101.232C157.62 100.688 156.916 99.984 156.372 99.12C155.86 98.224 155.604 97.248 155.604 96.192V79.968C155.604 78.912 155.86 77.952 156.372 77.088C156.916 76.192 157.62 75.488 158.484 74.976C159.38 74.432 160.356 74.16 161.412 74.16H178.116C179.204 74.16 180.18 74.432 181.044 74.976C181.94 75.488 182.644 76.192 183.156 77.088C183.7 77.952 183.972 78.912 183.972 79.968V96.192C183.972 97.248 183.7 98.224 183.156 99.12C182.644 99.984 181.94 100.688 181.044 101.232C180.18 101.744 179.204 102 178.116 102H161.412ZM161.412 98.064H178.116C178.628 98.064 179.06 97.888 179.412 97.536C179.796 97.152 179.988 96.704 179.988 96.192V79.968C179.988 79.456 179.796 79.024 179.412 78.672C179.06 78.288 178.628 78.096 178.116 78.096H161.412C160.9 78.096 160.452 78.288 160.068 78.672C159.716 79.024 159.54 79.456 159.54 79.968V96.192C159.54 96.704 159.716 97.152 160.068 97.536C160.452 97.888 160.9 98.064 161.412 98.064ZM193.565 102C192.509 102 191.533 101.744 190.637 101.232C189.773 100.688 189.069 99.984 188.525 99.12C188.013 98.224 187.757 97.248 187.757 96.192V95.808H191.693V96.192C191.693 96.704 191.869 97.152 192.221 97.536C192.605 97.888 193.053 98.064 193.565 98.064H210.269C210.781 98.064 211.213 97.888 211.565 97.536C211.949 97.152 212.141 96.704 212.141 96.192V91.92C212.141 91.408 211.949 90.976 211.565 90.624C211.213 90.24 210.781 90.048 210.269 90.048H193.565C192.509 90.048 191.533 89.792 190.637 89.28C189.773 88.736 189.069 88.032 188.525 87.168C188.013 86.272 187.757 85.296 187.757 84.24V79.968C187.757 78.912 188.013 77.952 188.525 77.088C189.069 76.192 189.773 75.488 190.637 74.976C191.533 74.432 192.509 74.16 193.565 74.16H210.269C211.357 74.16 212.333 74.432 213.197 74.976C214.093 75.488 214.797 76.192 215.309 77.088C215.853 77.952 216.125 78.912 216.125 79.968V80.352H212.141V79.968C212.141 79.456 211.949 79.024 211.565 78.672C211.213 78.288 210.781 78.096 210.269 78.096H193.565C193.053 78.096 192.605 78.288 192.221 78.672C191.869 79.024 191.693 79.456 191.693 79.968V84.24C191.693 84.752 191.869 85.2 192.221 85.584C192.605 85.936 193.053 86.112 193.565 86.112H210.269C211.357 86.112 212.333 86.384 213.197 86.928C214.093 87.44 214.797 88.144 215.309 89.04C215.853 89.904 216.125 90.864 216.125 91.92V96.192C216.125 97.248 215.853 98.224 215.309 99.12C214.797 99.984 214.093 100.688 213.197 101.232C212.333 101.744 211.357 102 210.269 102H193.565ZM225.912 102C224.856 102 223.88 101.744 222.984 101.232C222.12 100.688 221.416 99.984 220.872 99.12C220.36 98.224 220.104 97.248 220.104 96.192V79.968C220.104 78.912 220.36 77.952 220.872 77.088C221.416 76.192 222.12 75.488 222.984 74.976C223.88 74.432 224.856 74.16 225.912 74.16H242.616C243.704 74.16 244.68 74.432 245.544 74.976C246.44 75.488 247.144 76.192 247.656 77.088C248.2 77.952 248.472 78.912 248.472 79.968V90.048H224.04V96.192C224.04 96.704 224.216 97.152 224.568 97.536C224.952 97.888 225.4 98.064 225.912 98.064H248.472V102H225.912ZM224.04 86.112H244.488V79.968C244.488 79.456 244.296 79.024 243.912 78.672C243.56 78.288 243.128 78.096 242.616 78.096H225.912C225.4 78.096 224.952 78.288 224.568 78.672C224.216 79.024 224.04 79.456 224.04 79.968V86.112ZM272.273 102C271.217 102 270.241 101.744 269.345 101.232C268.481 100.688 267.777 99.984 267.233 99.12C266.721 98.224 266.465 97.248 266.465 96.192V86.112H290.849V79.968C290.849 79.456 290.657 79.024 290.273 78.672C289.921 78.288 289.489 78.096 288.977 78.096H266.465V74.16H288.977C290.065 74.16 291.041 74.432 291.905 74.976C292.801 75.488 293.505 76.192 294.017 77.088C294.561 77.952 294.833 78.912 294.833 79.968V102H272.273ZM272.273 98.064H290.849V90.048H270.401V96.192C270.401 96.704 270.577 97.152 270.929 97.536C271.313 97.888 271.761 98.064 272.273 98.064ZM312.967 113.04V74.16H335.527C336.583 74.16 337.543 74.432 338.407 74.976C339.303 75.488 340.007 76.192 340.519 77.088C341.063 77.952 341.335 78.912 341.335 79.968V96.192C341.335 97.248 341.063 98.224 340.519 99.12C340.007 99.984 339.303 100.688 338.407 101.232C337.543 101.744 336.583 102 335.527 102H316.903V113.04H312.967ZM318.823 98.064H335.527C336.039 98.064 336.471 97.888 336.823 97.536C337.207 97.152 337.399 96.704 337.399 96.192V79.968C337.399 79.456 337.207 79.024 336.823 78.672C336.471 78.288 336.039 78.096 335.527 78.096H318.823C318.311 78.096 317.863 78.288 317.479 78.672C317.095 79.024 316.903 79.456 316.903 79.968V96.192C316.903 96.704 317.095 97.152 317.479 97.536C317.863 97.888 318.311 98.064 318.823 98.064ZM350.554 102C349.498 102 348.522 101.744 347.626 101.232C346.762 100.688 346.058 99.984 345.514 99.12C345.002 98.224 344.746 97.248 344.746 96.192V86.112H369.13V79.968C369.13 79.456 368.938 79.024 368.554 78.672C368.202 78.288 367.77 78.096 367.258 78.096H344.746V74.16H367.258C368.346 74.16 369.322 74.432 370.186 74.976C371.082 75.488 371.786 76.192 372.298 77.088C372.842 77.952 373.114 78.912 373.114 79.968V102H350.554ZM350.554 98.064H369.13V90.048H348.682V96.192C348.682 96.704 348.858 97.152 349.21 97.536C349.594 97.888 350.042 98.064 350.554 98.064ZM383.93 102C382.842 102 381.85 101.744 380.954 101.232C380.09 100.688 379.402 99.984 378.89 99.12C378.378 98.224 378.122 97.248 378.122 96.192V65.04H382.058V74.16H394.106V78.096H382.058V96.192C382.058 96.704 382.234 97.152 382.586 97.536C382.97 97.888 383.418 98.064 383.93 98.064H394.106V102H383.93ZM398.092 102V65.04H402.028V74.16H420.652C421.708 74.16 422.668 74.432 423.532 74.976C424.428 75.488 425.132 76.192 425.644 77.088C426.188 77.952 426.46 78.912 426.46 79.968V102H422.524V79.968C422.524 79.456 422.332 79.024 421.948 78.672C421.596 78.288 421.164 78.096 420.652 78.096H403.948C403.436 78.096 402.988 78.288 402.604 78.672C402.22 79.024 402.028 79.456 402.028 79.968V102H398.092Z" fill="white"/>
</svg>
