<svg width="521" height="49" viewBox="0 0 521 49" fill="none" xmlns="http://www.w3.org/2000/svg">
<path d="M6.46363 37C5.40763 37 4.43163 36.744 3.53563 36.232C2.67163 35.72 1.98363 35.032 1.47163 34.168C0.959625 33.272 0.703625 32.296 0.703625 31.24V8.2C0.703625 7.144 0.959625 6.184 1.47163 5.32C1.98363 4.424 2.67163 3.72 3.53563 3.208C4.43163 2.696 5.40763 2.44 6.46363 2.44H35.1676V6.328H6.46363C5.95163 6.328 5.50363 6.52 5.11963 6.904C4.76763 7.256 4.59163 7.688 4.59163 8.2V31.24C4.59163 31.752 4.76763 32.2 5.11963 32.584C5.50363 32.936 5.95163 33.112 6.46363 33.112H35.1676V37H6.46363ZM40.2684 37V2.44H69.0684C70.1244 2.44 71.0844 2.696 71.9484 3.208C72.8444 3.72 73.5484 4.424 74.0604 5.32C74.5724 6.184 74.8284 7.144 74.8284 8.2V31.24C74.8284 32.296 74.5724 33.272 74.0604 34.168C73.5484 35.032 72.8444 35.72 71.9484 36.232C71.0844 36.744 70.1244 37 69.0684 37H40.2684ZM46.0284 33.112H69.0684C69.5804 33.112 70.0124 32.936 70.3644 32.584C70.7484 32.2 70.9404 31.752 70.9404 31.24V8.2C70.9404 7.688 70.7484 7.256 70.3644 6.904C70.0124 6.52 69.5804 6.328 69.0684 6.328H46.0284C45.5164 6.328 45.0684 6.52 44.6844 6.904C44.3324 7.256 44.1564 7.688 44.1564 8.2V31.24C44.1564 31.752 44.3324 32.2 44.6844 32.584C45.0684 32.936 45.5164 33.112 46.0284 33.112ZM85.8196 37C84.7636 37 83.7876 36.744 82.8916 36.232C82.0276 35.688 81.3236 34.984 80.7796 34.12C80.2676 33.224 80.0116 32.248 80.0116 31.192V21.112H104.396V14.968C104.396 14.456 104.204 14.024 103.82 13.672C103.468 13.288 103.036 13.096 102.524 13.096H80.0116V9.16H102.524C103.612 9.16 104.588 9.432 105.452 9.976C106.348 10.488 107.052 11.192 107.564 12.088C108.108 12.952 108.38 13.912 108.38 14.968V37H85.8196ZM85.8196 33.064H104.396V25.048H83.9476V31.192C83.9476 31.704 84.1236 32.152 84.4756 32.536C84.8596 32.888 85.3076 33.064 85.8196 33.064ZM113.436 48.04V9.16H135.996C137.052 9.16 138.012 9.432 138.876 9.976C139.772 10.488 140.476 11.192 140.988 12.088C141.532 12.952 141.804 13.912 141.804 14.968V31.192C141.804 32.248 141.532 33.224 140.988 34.12C140.476 34.984 139.772 35.688 138.876 36.232C138.012 36.744 137.052 37 135.996 37H117.372V48.04H113.436ZM119.292 33.064H135.996C136.508 33.064 136.94 32.888 137.292 32.536C137.676 32.152 137.868 31.704 137.868 31.192V14.968C137.868 14.456 137.676 14.024 137.292 13.672C136.94 13.288 136.508 13.096 135.996 13.096H119.292C118.78 13.096 118.332 13.288 117.948 13.672C117.564 14.024 117.372 14.456 117.372 14.968V31.192C117.372 31.704 117.564 32.152 117.948 32.536C118.332 32.888 118.78 33.064 119.292 33.064ZM145.311 48.04V9.16H167.871C168.927 9.16 169.887 9.432 170.751 9.976C171.647 10.488 172.351 11.192 172.863 12.088C173.407 12.952 173.679 13.912 173.679 14.968V31.192C173.679 32.248 173.407 33.224 172.863 34.12C172.351 34.984 171.647 35.688 170.751 36.232C169.887 36.744 168.927 37 167.871 37H149.247V48.04H145.311ZM151.167 33.064H167.871C168.383 33.064 168.815 32.888 169.167 32.536C169.551 32.152 169.743 31.704 169.743 31.192V14.968C169.743 14.456 169.551 14.024 169.167 13.672C168.815 13.288 168.383 13.096 167.871 13.096H151.167C150.655 13.096 150.207 13.288 149.823 13.672C149.439 14.024 149.247 14.456 149.247 14.968V31.192C149.247 31.704 149.439 32.152 149.823 32.536C150.207 32.888 150.655 33.064 151.167 33.064ZM183.175 37C182.119 37 181.143 36.744 180.247 36.232C179.383 35.688 178.679 34.984 178.135 34.12C177.623 33.224 177.367 32.248 177.367 31.192V30.808H181.303V31.192C181.303 31.704 181.479 32.152 181.831 32.536C182.215 32.888 182.663 33.064 183.175 33.064H199.879C200.391 33.064 200.823 32.888 201.175 32.536C201.559 32.152 201.751 31.704 201.751 31.192V26.92C201.751 26.408 201.559 25.976 201.175 25.624C200.823 25.24 200.391 25.048 199.879 25.048H183.175C182.119 25.048 181.143 24.792 180.247 24.28C179.383 23.736 178.679 23.032 178.135 22.168C177.623 21.272 177.367 20.296 177.367 19.24V14.968C177.367 13.912 177.623 12.952 178.135 12.088C178.679 11.192 179.383 10.488 180.247 9.976C181.143 9.432 182.119 9.16 183.175 9.16H199.879C200.967 9.16 201.943 9.432 202.807 9.976C203.703 10.488 204.407 11.192 204.919 12.088C205.463 12.952 205.735 13.912 205.735 14.968V15.352H201.751V14.968C201.751 14.456 201.559 14.024 201.175 13.672C200.823 13.288 200.391 13.096 199.879 13.096H183.175C182.663 13.096 182.215 13.288 181.831 13.672C181.479 14.024 181.303 14.456 181.303 14.968V19.24C181.303 19.752 181.479 20.2 181.831 20.584C182.215 20.936 182.663 21.112 183.175 21.112H199.879C200.967 21.112 201.943 21.384 202.807 21.928C203.703 22.44 204.407 23.144 204.919 24.04C205.463 24.904 205.735 25.864 205.735 26.92V31.192C205.735 32.248 205.463 33.224 204.919 34.12C204.407 34.984 203.703 35.688 202.807 36.232C201.943 36.744 200.967 37 199.879 37H183.175ZM223.831 37V2.44H255.367V6.328H227.719V17.752H249.943V21.688H227.719V33.112H255.367V37H223.831ZM266.053 37C264.997 37 264.021 36.744 263.125 36.232C262.261 35.688 261.557 34.984 261.013 34.12C260.501 33.224 260.245 32.248 260.245 31.192V14.968C260.245 13.912 260.501 12.952 261.013 12.088C261.557 11.192 262.261 10.488 263.125 9.976C264.021 9.432 264.997 9.16 266.053 9.16H288.517V13.096H266.053C265.541 13.096 265.093 13.288 264.709 13.672C264.357 14.024 264.181 14.456 264.181 14.968V31.192C264.181 31.704 264.357 32.152 264.709 32.536C265.093 32.888 265.541 33.064 266.053 33.064H288.613V37H266.053ZM299.428 37C298.372 37 297.396 36.744 296.5 36.232C295.636 35.688 294.932 34.984 294.388 34.12C293.876 33.224 293.62 32.248 293.62 31.192V14.968C293.62 13.912 293.876 12.952 294.388 12.088C294.932 11.192 295.636 10.488 296.5 9.976C297.396 9.432 298.372 9.16 299.428 9.16H316.132C317.22 9.16 318.196 9.432 319.06 9.976C319.956 10.488 320.66 11.192 321.172 12.088C321.716 12.952 321.988 13.912 321.988 14.968V31.192C321.988 32.248 321.716 33.224 321.172 34.12C320.66 34.984 319.956 35.688 319.06 36.232C318.196 36.744 317.22 37 316.132 37H299.428ZM299.428 33.064H316.132C316.644 33.064 317.076 32.888 317.428 32.536C317.812 32.152 318.004 31.704 318.004 31.192V14.968C318.004 14.456 317.812 14.024 317.428 13.672C317.076 13.288 316.644 13.096 316.132 13.096H299.428C298.916 13.096 298.468 13.288 298.084 13.672C297.732 14.024 297.556 14.456 297.556 14.968V31.192C297.556 31.704 297.732 32.152 298.084 32.536C298.468 32.888 298.916 33.064 299.428 33.064ZM331.581 37C330.525 37 329.549 36.744 328.653 36.232C327.789 35.688 327.085 34.984 326.541 34.12C326.029 33.224 325.773 32.248 325.773 31.192V30.808H329.709V31.192C329.709 31.704 329.885 32.152 330.237 32.536C330.621 32.888 331.069 33.064 331.581 33.064H348.285C348.797 33.064 349.229 32.888 349.581 32.536C349.965 32.152 350.157 31.704 350.157 31.192V26.92C350.157 26.408 349.965 25.976 349.581 25.624C349.229 25.24 348.797 25.048 348.285 25.048H331.581C330.525 25.048 329.549 24.792 328.653 24.28C327.789 23.736 327.085 23.032 326.541 22.168C326.029 21.272 325.773 20.296 325.773 19.24V14.968C325.773 13.912 326.029 12.952 326.541 12.088C327.085 11.192 327.789 10.488 328.653 9.976C329.549 9.432 330.525 9.16 331.581 9.16H348.285C349.373 9.16 350.349 9.432 351.213 9.976C352.109 10.488 352.813 11.192 353.325 12.088C353.869 12.952 354.141 13.912 354.141 14.968V15.352H350.157V14.968C350.157 14.456 349.965 14.024 349.581 13.672C349.229 13.288 348.797 13.096 348.285 13.096H331.581C331.069 13.096 330.621 13.288 330.237 13.672C329.885 14.024 329.709 14.456 329.709 14.968V19.24C329.709 19.752 329.885 20.2 330.237 20.584C330.621 20.936 331.069 21.112 331.581 21.112H348.285C349.373 21.112 350.349 21.384 351.213 21.928C352.109 22.44 352.813 23.144 353.325 24.04C353.869 24.904 354.141 25.864 354.141 26.92V31.192C354.141 32.248 353.869 33.224 353.325 34.12C352.813 34.984 352.109 35.688 351.213 36.232C350.349 36.744 349.373 37 348.285 37H331.581ZM363.527 48.04V44.056H380.903C381.415 44.056 381.847 43.864 382.199 43.48C382.583 43.128 382.775 42.696 382.775 42.184V37H364.199C363.143 37 362.167 36.744 361.271 36.232C360.407 35.688 359.703 34.984 359.159 34.12C358.647 33.224 358.391 32.248 358.391 31.192V9.256H362.327V31.192C362.327 31.704 362.503 32.152 362.855 32.536C363.239 32.888 363.687 33.064 364.199 33.064H380.903C381.415 33.064 381.847 32.888 382.199 32.536C382.583 32.152 382.775 31.704 382.775 31.192V9.256H386.711V42.184C386.711 43.272 386.455 44.248 385.943 45.112C385.431 46.008 384.727 46.712 383.831 47.224C382.967 47.768 381.991 48.04 380.903 48.04H363.527ZM397.346 37C396.29 37 395.314 36.744 394.418 36.232C393.554 35.688 392.85 34.984 392.306 34.12C391.794 33.224 391.538 32.248 391.538 31.192V30.808H395.474V31.192C395.474 31.704 395.65 32.152 396.002 32.536C396.386 32.888 396.834 33.064 397.346 33.064H414.05C414.562 33.064 414.994 32.888 415.346 32.536C415.73 32.152 415.922 31.704 415.922 31.192V26.92C415.922 26.408 415.73 25.976 415.346 25.624C414.994 25.24 414.562 25.048 414.05 25.048H397.346C396.29 25.048 395.314 24.792 394.418 24.28C393.554 23.736 392.85 23.032 392.306 22.168C391.794 21.272 391.538 20.296 391.538 19.24V14.968C391.538 13.912 391.794 12.952 392.306 12.088C392.85 11.192 393.554 10.488 394.418 9.976C395.314 9.432 396.29 9.16 397.346 9.16H414.05C415.138 9.16 416.114 9.432 416.978 9.976C417.874 10.488 418.578 11.192 419.09 12.088C419.634 12.952 419.906 13.912 419.906 14.968V15.352H415.922V14.968C415.922 14.456 415.73 14.024 415.346 13.672C414.994 13.288 414.562 13.096 414.05 13.096H397.346C396.834 13.096 396.386 13.288 396.002 13.672C395.65 14.024 395.474 14.456 395.474 14.968V19.24C395.474 19.752 395.65 20.2 396.002 20.584C396.386 20.936 396.834 21.112 397.346 21.112H414.05C415.138 21.112 416.114 21.384 416.978 21.928C417.874 22.44 418.578 23.144 419.09 24.04C419.634 24.904 419.906 25.864 419.906 26.92V31.192C419.906 32.248 419.634 33.224 419.09 34.12C418.578 34.984 417.874 35.688 416.978 36.232C416.114 36.744 415.138 37 414.05 37H397.346ZM430.493 37C429.405 37 428.413 36.744 427.517 36.232C426.653 35.688 425.965 34.984 425.453 34.12C424.941 33.224 424.685 32.248 424.685 31.192V0.0399981H428.621V9.16H440.669V13.096H428.621V31.192C428.621 31.704 428.797 32.152 429.149 32.536C429.533 32.888 429.981 33.064 430.493 33.064H440.669V37H430.493ZM450.084 37C449.028 37 448.052 36.744 447.156 36.232C446.292 35.688 445.588 34.984 445.044 34.12C444.532 33.224 444.276 32.248 444.276 31.192V14.968C444.276 13.912 444.532 12.952 445.044 12.088C445.588 11.192 446.292 10.488 447.156 9.976C448.052 9.432 449.028 9.16 450.084 9.16H466.788C467.876 9.16 468.852 9.432 469.716 9.976C470.612 10.488 471.316 11.192 471.828 12.088C472.372 12.952 472.644 13.912 472.644 14.968V25.048H448.212V31.192C448.212 31.704 448.388 32.152 448.74 32.536C449.124 32.888 449.572 33.064 450.084 33.064H472.644V37H450.084ZM448.212 21.112H468.66V14.968C468.66 14.456 468.468 14.024 468.084 13.672C467.732 13.288 467.3 13.096 466.788 13.096H450.084C449.572 13.096 449.124 13.288 448.74 13.672C448.388 14.024 448.212 14.456 448.212 14.968V21.112ZM477.655 37V9.16H514.423C515.511 9.16 516.487 9.432 517.351 9.976C518.247 10.488 518.951 11.192 519.463 12.088C519.975 12.952 520.231 13.912 520.231 14.968V37H516.343V14.968C516.343 14.456 516.151 14.024 515.767 13.672C515.383 13.288 514.935 13.096 514.423 13.096H502.855C502.343 13.096 501.895 13.288 501.51 13.672C501.159 14.024 500.983 14.456 500.983 14.968V37H496.999V14.968C496.999 14.456 496.807 14.024 496.423 13.672C496.071 13.288 495.639 13.096 495.127 13.096H483.511C482.999 13.096 482.551 13.288 482.167 13.672C481.815 14.024 481.639 14.456 481.639 14.968V37H477.655Z" fill="white"/>
</svg>
