<svg width="174" height="18" viewBox="0 0 174 18" fill="none" xmlns="http://www.w3.org/2000/svg">
<path d="M0.832844 18V0.696H2.77684V16.056H18.1128V18H0.832844ZM22.296 18C21.768 18 21.28 17.872 20.832 17.616C20.4 17.344 20.048 16.992 19.776 16.56C19.52 16.112 19.392 15.624 19.392 15.096V6.984C19.392 6.456 19.52 5.976 19.776 5.544C20.048 5.096 20.4 4.744 20.832 4.488C21.28 4.216 21.768 4.08 22.296 4.08H30.648C31.192 4.08 31.68 4.216 32.112 4.488C32.56 4.744 32.912 5.096 33.168 5.544C33.44 5.976 33.576 6.456 33.576 6.984V12.024H21.36V15.096C21.36 15.352 21.448 15.576 21.624 15.768C21.816 15.944 22.04 16.032 22.296 16.032H33.576V18H22.296ZM21.36 10.056H31.584V6.984C31.584 6.728 31.488 6.512 31.296 6.336C31.12 6.144 30.904 6.048 30.648 6.048H22.296C22.04 6.048 21.816 6.144 21.624 6.336C21.448 6.512 21.36 6.728 21.36 6.984V10.056ZM38.9372 18C38.4092 18 37.9212 17.872 37.4732 17.616C37.0412 17.344 36.6892 16.992 36.4172 16.56C36.1612 16.112 36.0332 15.624 36.0332 15.096V10.056H48.2252V6.984C48.2252 6.728 48.1292 6.512 47.9372 6.336C47.7612 6.144 47.5452 6.048 47.2892 6.048H36.0332V4.08H47.2892C47.8332 4.08 48.3212 4.216 48.7532 4.488C49.2012 4.744 49.5532 5.096 49.8092 5.544C50.0812 5.976 50.2172 6.456 50.2172 6.984V18H38.9372ZM38.9372 16.032H48.2252V12.024H38.0012V15.096C38.0012 15.352 38.0892 15.576 38.2652 15.768C38.4572 15.944 38.6812 16.032 38.9372 16.032ZM52.58 18V6.984C52.58 6.456 52.708 5.976 52.964 5.544C53.236 5.096 53.588 4.744 54.02 4.488C54.468 4.216 54.956 4.08 55.484 4.08H63.308V6.048H55.484C55.228 6.048 55.004 6.144 54.812 6.336C54.636 6.512 54.548 6.728 54.548 6.984V18H52.58ZM64.9093 18V4.08H76.1893C76.7173 4.08 77.1973 4.216 77.6293 4.488C78.0773 4.744 78.4293 5.096 78.6853 5.544C78.9573 5.976 79.0933 6.456 79.0933 6.984V18H77.1253V6.984C77.1253 6.728 77.0293 6.512 76.8373 6.336C76.6613 6.144 76.4453 6.048 76.1893 6.048H67.8373C67.5813 6.048 67.3573 6.144 67.1653 6.336C66.9733 6.512 66.8773 6.728 66.8773 6.984V18H64.9093ZM88.1593 18V4.08H106.543C107.087 4.08 107.575 4.216 108.007 4.488C108.455 4.744 108.807 5.096 109.063 5.544C109.319 5.976 109.447 6.456 109.447 6.984V18H107.503V6.984C107.503 6.728 107.407 6.512 107.215 6.336C107.023 6.144 106.799 6.048 106.543 6.048H100.759C100.503 6.048 100.279 6.144 100.087 6.336C99.9113 6.512 99.8233 6.728 99.8233 6.984V18H97.8313V6.984C97.8313 6.728 97.7353 6.512 97.5433 6.336C97.3673 6.144 97.1513 6.048 96.8953 6.048H91.0873C90.8313 6.048 90.6073 6.144 90.4153 6.336C90.2393 6.512 90.1513 6.728 90.1513 6.984V18H88.1593ZM114.452 18C113.924 18 113.436 17.872 112.988 17.616C112.556 17.344 112.204 16.992 111.932 16.56C111.676 16.112 111.548 15.624 111.548 15.096V6.984C111.548 6.456 111.676 5.976 111.932 5.544C112.204 5.096 112.556 4.744 112.988 4.488C113.436 4.216 113.924 4.08 114.452 4.08H122.804C123.348 4.08 123.836 4.216 124.268 4.488C124.716 4.744 125.068 5.096 125.324 5.544C125.596 5.976 125.732 6.456 125.732 6.984V15.096C125.732 15.624 125.596 16.112 125.324 16.56C125.068 16.992 124.716 17.344 124.268 17.616C123.836 17.872 123.348 18 122.804 18H114.452ZM114.452 16.032H122.804C123.06 16.032 123.276 15.944 123.452 15.768C123.644 15.576 123.74 15.352 123.74 15.096V6.984C123.74 6.728 123.644 6.512 123.452 6.336C123.276 6.144 123.06 6.048 122.804 6.048H114.452C114.196 6.048 113.972 6.144 113.78 6.336C113.604 6.512 113.516 6.728 113.516 6.984V15.096C113.516 15.352 113.604 15.576 113.78 15.768C113.972 15.944 114.196 16.032 114.452 16.032ZM127.955 18V6.984C127.955 6.456 128.083 5.976 128.339 5.544C128.611 5.096 128.963 4.744 129.395 4.488C129.843 4.216 130.331 4.08 130.859 4.08H138.683V6.048H130.859C130.603 6.048 130.379 6.144 130.187 6.336C130.011 6.512 129.923 6.728 129.923 6.984V18H127.955ZM143.116 18C142.588 18 142.1 17.872 141.652 17.616C141.22 17.344 140.868 16.992 140.596 16.56C140.34 16.112 140.212 15.624 140.212 15.096V6.984C140.212 6.456 140.34 5.976 140.596 5.544C140.868 5.096 141.22 4.744 141.652 4.488C142.1 4.216 142.588 4.08 143.116 4.08H151.468C152.012 4.08 152.5 4.216 152.932 4.488C153.38 4.744 153.732 5.096 153.988 5.544C154.26 5.976 154.396 6.456 154.396 6.984V12.024H142.18V15.096C142.18 15.352 142.268 15.576 142.444 15.768C142.636 15.944 142.86 16.032 143.116 16.032H154.396V18H143.116ZM142.18 10.056H152.404V6.984C152.404 6.728 152.308 6.512 152.116 6.336C151.94 6.144 151.724 6.048 151.468 6.048H143.116C142.86 6.048 142.636 6.144 142.444 6.336C142.268 6.512 142.18 6.728 142.18 6.984V10.056ZM163.561 17.664V15.384L171.241 10.944L163.561 6.504V4.224L173.209 9.768V12.096L163.561 17.664Z" fill="#CBD5E0"/>
</svg>
