<svg width="563" height="37" viewBox="0 0 563 37" fill="none" xmlns="http://www.w3.org/2000/svg">
<path d="M0.8755 37V2.488H29.6755C30.7315 2.488 31.6915 2.76 32.5555 3.304C33.4515 3.816 34.1555 4.504 34.6675 5.368C35.1795 6.232 35.4355 7.192 35.4355 8.248V18.376C35.4355 19.432 35.1795 20.392 34.6675 21.256C34.1555 22.12 33.4515 22.824 32.5555 23.368C31.6915 23.88 30.7315 24.136 29.6755 24.136H4.7635V37H0.8755ZM6.6355 20.2H29.6755C30.1875 20.2 30.6195 20.024 30.9715 19.672C31.3555 19.32 31.5475 18.888 31.5475 18.376V8.248C31.5475 7.736 31.3555 7.304 30.9715 6.952C30.6195 6.568 30.1875 6.376 29.6755 6.376H6.6355C6.1235 6.376 5.6755 6.568 5.2915 6.952C4.9395 7.304 4.7635 7.736 4.7635 8.248V18.376C4.7635 18.888 4.9395 19.32 5.2915 19.672C5.6755 20.024 6.1235 20.2 6.6355 20.2ZM44.4603 37C43.4043 37 42.4283 36.744 41.5323 36.232C40.6683 35.688 39.9643 34.984 39.4203 34.12C38.9083 33.224 38.6523 32.248 38.6523 31.192V21.112H63.0363V14.968C63.0363 14.456 62.8443 14.024 62.4603 13.672C62.1083 13.288 61.6763 13.096 61.1643 13.096H38.6523V9.16H61.1643C62.2523 9.16 63.2283 9.432 64.0923 9.976C64.9883 10.488 65.6923 11.192 66.2043 12.088C66.7483 12.952 67.0203 13.912 67.0203 14.968V37H44.4603ZM44.4603 33.064H63.0363V25.048H42.5883V31.192C42.5883 31.704 42.7643 32.152 43.1163 32.536C43.5003 32.888 43.9483 33.064 44.4603 33.064ZM71.746 37V14.968C71.746 13.912 72.002 12.952 72.514 12.088C73.058 11.192 73.762 10.488 74.626 9.976C75.522 9.432 76.498 9.16 77.554 9.16H93.202V13.096H77.554C77.042 13.096 76.594 13.288 76.21 13.672C75.858 14.024 75.682 14.456 75.682 14.968V37H71.746ZM102.165 37C101.077 37 100.085 36.744 99.1885 36.232C98.3245 35.688 97.6365 34.984 97.1245 34.12C96.6125 33.224 96.3565 32.248 96.3565 31.192V0.0399981H100.293V9.16H112.341V13.096H100.293V31.192C100.293 31.704 100.469 32.152 100.821 32.536C101.205 32.888 101.653 33.064 102.165 33.064H112.341V37H102.165ZM116.092 37V9.16H138.652C139.708 9.16 140.668 9.432 141.532 9.976C142.428 10.488 143.132 11.192 143.644 12.088C144.188 12.952 144.46 13.912 144.46 14.968V37H140.524V14.968C140.524 14.456 140.332 14.024 139.948 13.672C139.596 13.288 139.164 13.096 138.652 13.096H121.948C121.436 13.096 120.988 13.288 120.604 13.672C120.22 14.024 120.028 14.456 120.028 14.968V37H116.092ZM155.178 37C154.122 37 153.146 36.744 152.25 36.232C151.386 35.688 150.682 34.984 150.138 34.12C149.626 33.224 149.37 32.248 149.37 31.192V14.968C149.37 13.912 149.626 12.952 150.138 12.088C150.682 11.192 151.386 10.488 152.25 9.976C153.146 9.432 154.122 9.16 155.178 9.16H171.882C172.97 9.16 173.946 9.432 174.81 9.976C175.706 10.488 176.41 11.192 176.922 12.088C177.466 12.952 177.738 13.912 177.738 14.968V25.048H153.306V31.192C153.306 31.704 153.482 32.152 153.834 32.536C154.218 32.888 154.666 33.064 155.178 33.064H177.738V37H155.178ZM153.306 21.112H173.754V14.968C173.754 14.456 173.562 14.024 173.178 13.672C172.826 13.288 172.394 13.096 171.882 13.096H155.178C154.666 13.096 154.218 13.288 153.834 13.672C153.482 14.024 153.306 14.456 153.306 14.968V21.112ZM182.418 37V14.968C182.418 13.912 182.674 12.952 183.186 12.088C183.73 11.192 184.434 10.488 185.298 9.976C186.194 9.432 187.17 9.16 188.226 9.16H203.874V13.096H188.226C187.714 13.096 187.266 13.288 186.882 13.672C186.53 14.024 186.354 14.456 186.354 14.968V37H182.418ZM212.596 37C211.54 37 210.564 36.744 209.668 36.232C208.804 35.688 208.1 34.984 207.556 34.12C207.044 33.224 206.788 32.248 206.788 31.192V30.808H210.724V31.192C210.724 31.704 210.9 32.152 211.252 32.536C211.636 32.888 212.084 33.064 212.596 33.064H229.3C229.812 33.064 230.244 32.888 230.596 32.536C230.98 32.152 231.172 31.704 231.172 31.192V26.92C231.172 26.408 230.98 25.976 230.596 25.624C230.244 25.24 229.812 25.048 229.3 25.048H212.596C211.54 25.048 210.564 24.792 209.668 24.28C208.804 23.736 208.1 23.032 207.556 22.168C207.044 21.272 206.788 20.296 206.788 19.24V14.968C206.788 13.912 207.044 12.952 207.556 12.088C208.1 11.192 208.804 10.488 209.668 9.976C210.564 9.432 211.54 9.16 212.596 9.16H229.3C230.388 9.16 231.364 9.432 232.228 9.976C233.124 10.488 233.828 11.192 234.34 12.088C234.884 12.952 235.156 13.912 235.156 14.968V15.352H231.172V14.968C231.172 14.456 230.98 14.024 230.596 13.672C230.244 13.288 229.812 13.096 229.3 13.096H212.596C212.084 13.096 211.636 13.288 211.252 13.672C210.9 14.024 210.724 14.456 210.724 14.968V19.24C210.724 19.752 210.9 20.2 211.252 20.584C211.636 20.936 212.084 21.112 212.596 21.112H229.3C230.388 21.112 231.364 21.384 232.228 21.928C233.124 22.44 233.828 23.144 234.34 24.04C234.884 24.904 235.156 25.864 235.156 26.92V31.192C235.156 32.248 234.884 33.224 234.34 34.12C233.828 34.984 233.124 35.688 232.228 36.232C231.364 36.744 230.388 37 229.3 37H212.596ZM258.821 37C257.765 37 256.789 36.744 255.893 36.232C255.029 35.688 254.325 34.984 253.781 34.12C253.269 33.224 253.013 32.248 253.013 31.192V20.872C253.013 20.168 253.445 19.48 254.309 18.808C255.173 18.104 256.325 17.752 257.765 17.752C255.941 16.376 255.029 14.84 255.029 13.144V8.344C255.029 7.256 255.285 6.28 255.797 5.416C256.341 4.52 257.045 3.816 257.909 3.304C258.805 2.76 259.781 2.488 260.837 2.488H280.565C281.461 2.488 282.309 2.728 283.109 3.208C283.909 3.656 284.597 4.264 285.173 5.032C285.781 5.768 286.197 6.552 286.421 7.384V10.024H282.437V8.392C282.437 7.88 282.245 7.448 281.861 7.096C281.509 6.712 281.077 6.52 280.565 6.52H260.837C260.325 6.52 259.877 6.712 259.493 7.096C259.141 7.448 258.965 7.88 258.965 8.392V15.064L283.973 27.688V21.016H287.909V28.984L294.341 32.776V36.232L287.765 32.536C287.253 33.848 286.485 34.92 285.461 35.752C284.437 36.584 283.317 37 282.101 37H258.821ZM258.821 33.064H282.101C282.421 33.064 282.757 32.904 283.109 32.584C283.493 32.264 283.797 31.848 284.021 31.336L259.541 19H258.821C258.309 19 257.861 19.192 257.477 19.576C257.125 19.928 256.949 20.36 256.949 20.872V31.192C256.949 31.704 257.125 32.152 257.477 32.536C257.861 32.888 258.309 33.064 258.821 33.064ZM311.762 37V2.44H315.698V37H311.762ZM321.451 37V9.16H344.011C345.067 9.16 346.027 9.432 346.891 9.976C347.787 10.488 348.491 11.192 349.003 12.088C349.547 12.952 349.819 13.912 349.819 14.968V37H345.883V14.968C345.883 14.456 345.691 14.024 345.307 13.672C344.955 13.288 344.523 13.096 344.011 13.096H327.307C326.795 13.096 326.347 13.288 325.963 13.672C325.579 14.024 325.387 14.456 325.387 14.968V37H321.451ZM368.649 37L353.289 9.16H357.897L370.953 33.16L384.009 9.16H388.617L373.209 37H368.649ZM397.006 37C395.95 37 394.974 36.744 394.078 36.232C393.214 35.688 392.51 34.984 391.966 34.12C391.454 33.224 391.198 32.248 391.198 31.192V14.968C391.198 13.912 391.454 12.952 391.966 12.088C392.51 11.192 393.214 10.488 394.078 9.976C394.974 9.432 395.95 9.16 397.006 9.16H413.71C414.798 9.16 415.774 9.432 416.638 9.976C417.534 10.488 418.238 11.192 418.75 12.088C419.294 12.952 419.566 13.912 419.566 14.968V25.048H395.134V31.192C395.134 31.704 395.31 32.152 395.662 32.536C396.046 32.888 396.494 33.064 397.006 33.064H419.566V37H397.006ZM395.134 21.112H415.582V14.968C415.582 14.456 415.39 14.024 415.006 13.672C414.654 13.288 414.222 13.096 413.71 13.096H397.006C396.494 13.096 396.046 13.288 395.662 13.672C395.31 14.024 395.134 14.456 395.134 14.968V21.112ZM430.096 37C429.04 37 428.064 36.744 427.168 36.232C426.304 35.688 425.6 34.984 425.056 34.12C424.544 33.224 424.288 32.248 424.288 31.192V30.808H428.224V31.192C428.224 31.704 428.4 32.152 428.752 32.536C429.136 32.888 429.584 33.064 430.096 33.064H446.8C447.312 33.064 447.744 32.888 448.096 32.536C448.48 32.152 448.672 31.704 448.672 31.192V26.92C448.672 26.408 448.48 25.976 448.096 25.624C447.744 25.24 447.312 25.048 446.8 25.048H430.096C429.04 25.048 428.064 24.792 427.168 24.28C426.304 23.736 425.6 23.032 425.056 22.168C424.544 21.272 424.288 20.296 424.288 19.24V14.968C424.288 13.912 424.544 12.952 425.056 12.088C425.6 11.192 426.304 10.488 427.168 9.976C428.064 9.432 429.04 9.16 430.096 9.16H446.8C447.888 9.16 448.864 9.432 449.728 9.976C450.624 10.488 451.328 11.192 451.84 12.088C452.384 12.952 452.656 13.912 452.656 14.968V15.352H448.672V14.968C448.672 14.456 448.48 14.024 448.096 13.672C447.744 13.288 447.312 13.096 446.8 13.096H430.096C429.584 13.096 429.136 13.288 428.752 13.672C428.4 14.024 428.224 14.456 428.224 14.968V19.24C428.224 19.752 428.4 20.2 428.752 20.584C429.136 20.936 429.584 21.112 430.096 21.112H446.8C447.888 21.112 448.864 21.384 449.728 21.928C450.624 22.44 451.328 23.144 451.84 24.04C452.384 24.904 452.656 25.864 452.656 26.92V31.192C452.656 32.248 452.384 33.224 451.84 34.12C451.328 34.984 450.624 35.688 449.728 36.232C448.864 36.744 447.888 37 446.8 37H430.096ZM463.243 37C462.155 37 461.163 36.744 460.267 36.232C459.403 35.688 458.715 34.984 458.203 34.12C457.691 33.224 457.435 32.248 457.435 31.192V0.0399981H461.371V9.16H473.419V13.096H461.371V31.192C461.371 31.704 461.547 32.152 461.899 32.536C462.283 32.888 462.731 33.064 463.243 33.064H473.419V37H463.243ZM482.834 37C481.778 37 480.802 36.744 479.906 36.232C479.042 35.688 478.338 34.984 477.794 34.12C477.282 33.224 477.026 32.248 477.026 31.192V14.968C477.026 13.912 477.282 12.952 477.794 12.088C478.338 11.192 479.042 10.488 479.906 9.976C480.802 9.432 481.778 9.16 482.834 9.16H499.538C500.626 9.16 501.602 9.432 502.466 9.976C503.362 10.488 504.066 11.192 504.578 12.088C505.122 12.952 505.394 13.912 505.394 14.968V31.192C505.394 32.248 505.122 33.224 504.578 34.12C504.066 34.984 503.362 35.688 502.466 36.232C501.602 36.744 500.626 37 499.538 37H482.834ZM482.834 33.064H499.538C500.05 33.064 500.482 32.888 500.834 32.536C501.218 32.152 501.41 31.704 501.41 31.192V14.968C501.41 14.456 501.218 14.024 500.834 13.672C500.482 13.288 500.05 13.096 499.538 13.096H482.834C482.322 13.096 481.874 13.288 481.49 13.672C481.138 14.024 480.962 14.456 480.962 14.968V31.192C480.962 31.704 481.138 32.152 481.49 32.536C481.874 32.888 482.322 33.064 482.834 33.064ZM509.84 37V14.968C509.84 13.912 510.096 12.952 510.608 12.088C511.152 11.192 511.856 10.488 512.72 9.976C513.616 9.432 514.592 9.16 515.648 9.16H531.296V13.096H515.648C515.136 13.096 514.688 13.288 514.304 13.672C513.952 14.024 513.776 14.456 513.776 14.968V37H509.84ZM540.018 37C538.962 37 537.986 36.744 537.09 36.232C536.226 35.688 535.522 34.984 534.978 34.12C534.466 33.224 534.21 32.248 534.21 31.192V30.808H538.146V31.192C538.146 31.704 538.322 32.152 538.674 32.536C539.058 32.888 539.506 33.064 540.018 33.064H556.722C557.234 33.064 557.666 32.888 558.018 32.536C558.402 32.152 558.594 31.704 558.594 31.192V26.92C558.594 26.408 558.402 25.976 558.018 25.624C557.666 25.24 557.234 25.048 556.722 25.048H540.018C538.962 25.048 537.986 24.792 537.09 24.28C536.226 23.736 535.522 23.032 534.978 22.168C534.466 21.272 534.21 20.296 534.21 19.24V14.968C534.21 13.912 534.466 12.952 534.978 12.088C535.522 11.192 536.226 10.488 537.09 9.976C537.986 9.432 538.962 9.16 540.018 9.16H556.722C557.81 9.16 558.786 9.432 559.65 9.976C560.546 10.488 561.25 11.192 561.762 12.088C562.306 12.952 562.578 13.912 562.578 14.968V15.352H558.594V14.968C558.594 14.456 558.402 14.024 558.018 13.672C557.666 13.288 557.234 13.096 556.722 13.096H540.018C539.506 13.096 539.058 13.288 538.674 13.672C538.322 14.024 538.146 14.456 538.146 14.968V19.24C538.146 19.752 538.322 20.2 538.674 20.584C539.058 20.936 539.506 21.112 540.018 21.112H556.722C557.81 21.112 558.786 21.384 559.65 21.928C560.546 22.44 561.25 23.144 561.762 24.04C562.306 24.904 562.578 25.864 562.578 26.92V31.192C562.578 32.248 562.306 33.224 561.762 34.12C561.25 34.984 560.546 35.688 559.65 36.232C558.786 36.744 557.81 37 556.722 37H540.018Z" fill="white"/>
</svg>
