<svg width="410" height="49" viewBox="0 0 410 49" fill="none" xmlns="http://www.w3.org/2000/svg">
<path d="M0.688 37V2.488H29.488C30.544 2.488 31.504 2.76 32.368 3.304C33.264 3.816 33.968 4.504 34.48 5.368C34.992 6.232 35.248 7.192 35.248 8.248V18.376C35.248 19.432 34.992 20.392 34.48 21.256C33.968 22.12 33.264 22.824 32.368 23.368C31.504 23.88 30.544 24.136 29.488 24.136H4.576V37H0.688ZM6.448 20.2H29.488C30 20.2 30.432 20.024 30.784 19.672C31.168 19.32 31.36 18.888 31.36 18.376V8.248C31.36 7.736 31.168 7.304 30.784 6.952C30.432 6.568 30 6.376 29.488 6.376H6.448C5.936 6.376 5.488 6.568 5.104 6.952C4.752 7.304 4.576 7.736 4.576 8.248V18.376C4.576 18.888 4.752 19.32 5.104 19.672C5.488 20.024 5.936 20.2 6.448 20.2ZM38.4648 37V14.968C38.4648 13.912 38.7208 12.952 39.2328 12.088C39.7768 11.192 40.4808 10.488 41.3448 9.976C42.2408 9.432 43.2168 9.16 44.2728 9.16H59.9208V13.096H44.2728C43.7608 13.096 43.3128 13.288 42.9288 13.672C42.5768 14.024 42.4008 14.456 42.4008 14.968V37H38.4648ZM68.5529 37C67.4969 37 66.5209 36.744 65.6249 36.232C64.7609 35.688 64.0569 34.984 63.5129 34.12C63.0009 33.224 62.7449 32.248 62.7449 31.192V14.968C62.7449 13.912 63.0009 12.952 63.5129 12.088C64.0569 11.192 64.7609 10.488 65.6249 9.976C66.5209 9.432 67.4969 9.16 68.5529 9.16H85.2569C86.3449 9.16 87.3209 9.432 88.1849 9.976C89.0809 10.488 89.7849 11.192 90.2969 12.088C90.8409 12.952 91.1129 13.912 91.1129 14.968V31.192C91.1129 32.248 90.8409 33.224 90.2969 34.12C89.7849 34.984 89.0809 35.688 88.1849 36.232C87.3209 36.744 86.3449 37 85.2569 37H68.5529ZM68.5529 33.064H85.2569C85.7689 33.064 86.2009 32.888 86.5529 32.536C86.9369 32.152 87.1289 31.704 87.1289 31.192V14.968C87.1289 14.456 86.9369 14.024 86.5529 13.672C86.2009 13.288 85.7689 13.096 85.2569 13.096H68.5529C68.0409 13.096 67.5929 13.288 67.2089 13.672C66.8569 14.024 66.6809 14.456 66.6809 14.968V31.192C66.6809 31.704 66.8569 32.152 67.2089 32.536C67.5929 32.888 68.0409 33.064 68.5529 33.064ZM100.491 37C99.4033 37 98.4113 36.744 97.5153 36.232C96.6513 35.688 95.9473 34.984 95.4033 34.12C94.8913 33.224 94.6353 32.248 94.6353 31.192V14.968C94.6353 13.912 94.8913 12.952 95.4033 12.088C95.9473 11.192 96.6513 10.488 97.5153 9.976C98.4113 9.432 99.4033 9.16 100.491 9.16H119.067V0.0399981H123.003V37H100.491ZM100.491 33.064H117.195C117.707 33.064 118.139 32.888 118.491 32.536C118.875 32.152 119.067 31.704 119.067 31.192V14.968C119.067 14.456 118.875 14.024 118.491 13.672C118.139 13.288 117.707 13.096 117.195 13.096H100.491C99.9793 13.096 99.5313 13.288 99.1473 13.672C98.7953 14.024 98.6193 14.456 98.6193 14.968V31.192C98.6193 31.704 98.7953 32.152 99.1473 32.536C99.5313 32.888 99.9793 33.064 100.491 33.064ZM132.774 37C131.718 37 130.742 36.744 129.846 36.232C128.982 35.688 128.278 34.984 127.734 34.12C127.222 33.224 126.966 32.248 126.966 31.192V9.16H130.902V31.192C130.902 31.704 131.078 32.152 131.43 32.536C131.814 32.888 132.262 33.064 132.774 33.064H149.478C149.99 33.064 150.438 32.888 150.822 32.536C151.206 32.152 151.398 31.704 151.398 31.192V9.16H155.334V31.192C155.334 32.248 155.062 33.224 154.518 34.12C154.006 34.984 153.302 35.688 152.406 36.232C151.542 36.744 150.566 37 149.478 37H132.774ZM165.115 37C164.059 37 163.083 36.744 162.187 36.232C161.323 35.688 160.619 34.984 160.075 34.12C159.563 33.224 159.307 32.248 159.307 31.192V14.968C159.307 13.912 159.563 12.952 160.075 12.088C160.619 11.192 161.323 10.488 162.187 9.976C163.083 9.432 164.059 9.16 165.115 9.16H187.579V13.096H165.115C164.603 13.096 164.155 13.288 163.771 13.672C163.419 14.024 163.243 14.456 163.243 14.968V31.192C163.243 31.704 163.419 32.152 163.771 32.536C164.155 32.888 164.603 33.064 165.115 33.064H187.675V37H165.115ZM197.368 37C196.28 37 195.288 36.744 194.392 36.232C193.528 35.688 192.84 34.984 192.328 34.12C191.816 33.224 191.56 32.248 191.56 31.192V0.0399981H195.496V9.16H207.544V13.096H195.496V31.192C195.496 31.704 195.672 32.152 196.024 32.536C196.408 32.888 196.856 33.064 197.368 33.064H207.544V37H197.368ZM216.815 37C215.759 37 214.783 36.744 213.887 36.232C213.023 35.688 212.319 34.984 211.775 34.12C211.263 33.224 211.007 32.248 211.007 31.192V30.808H214.943V31.192C214.943 31.704 215.119 32.152 215.471 32.536C215.855 32.888 216.303 33.064 216.815 33.064H233.519C234.031 33.064 234.463 32.888 234.815 32.536C235.199 32.152 235.391 31.704 235.391 31.192V26.92C235.391 26.408 235.199 25.976 234.815 25.624C234.463 25.24 234.031 25.048 233.519 25.048H216.815C215.759 25.048 214.783 24.792 213.887 24.28C213.023 23.736 212.319 23.032 211.775 22.168C211.263 21.272 211.007 20.296 211.007 19.24V14.968C211.007 13.912 211.263 12.952 211.775 12.088C212.319 11.192 213.023 10.488 213.887 9.976C214.783 9.432 215.759 9.16 216.815 9.16H233.519C234.607 9.16 235.583 9.432 236.447 9.976C237.343 10.488 238.047 11.192 238.559 12.088C239.103 12.952 239.375 13.912 239.375 14.968V15.352H235.391V14.968C235.391 14.456 235.199 14.024 234.815 13.672C234.463 13.288 234.031 13.096 233.519 13.096H216.815C216.303 13.096 215.855 13.288 215.471 13.672C215.119 14.024 214.943 14.456 214.943 14.968V19.24C214.943 19.752 215.119 20.2 215.471 20.584C215.855 20.936 216.303 21.112 216.815 21.112H233.519C234.607 21.112 235.583 21.384 236.447 21.928C237.343 22.44 238.047 23.144 238.559 24.04C239.103 24.904 239.375 25.864 239.375 26.92V31.192C239.375 32.248 239.103 33.224 238.559 34.12C238.047 34.984 237.343 35.688 236.447 36.232C235.583 36.744 234.607 37 233.519 37H216.815ZM257.28 37V0.0399981H261.216V9.16H279.84C280.896 9.16 281.856 9.432 282.72 9.976C283.616 10.488 284.32 11.192 284.832 12.088C285.376 12.952 285.648 13.912 285.648 14.968V31.192C285.648 32.248 285.376 33.224 284.832 34.12C284.32 34.984 283.616 35.688 282.72 36.232C281.856 36.744 280.896 37 279.84 37H257.28ZM263.136 33.064H279.84C280.352 33.064 280.784 32.888 281.135 32.536C281.52 32.152 281.712 31.704 281.712 31.192V14.968C281.712 14.456 281.52 14.024 281.135 13.672C280.784 13.288 280.352 13.096 279.84 13.096H263.136C262.624 13.096 262.176 13.288 261.792 13.672C261.408 14.024 261.216 14.456 261.216 14.968V31.192C261.216 31.704 261.408 32.152 261.792 32.536C262.176 32.888 262.624 33.064 263.136 33.064ZM293.855 48.04V44.056H311.231C311.743 44.056 312.175 43.864 312.527 43.48C312.911 43.128 313.103 42.696 313.103 42.184V37H294.527C293.471 37 292.495 36.744 291.599 36.232C290.735 35.688 290.031 34.984 289.487 34.12C288.975 33.224 288.719 32.248 288.719 31.192V9.256H292.655V31.192C292.655 31.704 292.831 32.152 293.183 32.536C293.567 32.888 294.015 33.064 294.527 33.064H311.231C311.743 33.064 312.175 32.888 312.527 32.536C312.911 32.152 313.103 31.704 313.103 31.192V9.256H317.039V42.184C317.039 43.272 316.783 44.248 316.271 45.112C315.759 46.008 315.055 46.712 314.159 47.224C313.295 47.768 312.319 48.04 311.231 48.04H293.855ZM341.089 37C340.033 37 339.057 36.744 338.161 36.232C337.297 35.72 336.609 35.032 336.097 34.168C335.585 33.272 335.329 32.296 335.329 31.24V8.2C335.329 7.144 335.585 6.184 336.097 5.32C336.609 4.424 337.297 3.72 338.161 3.208C339.057 2.696 340.033 2.44 341.089 2.44H369.793V6.328H341.089C340.577 6.328 340.129 6.52 339.745 6.904C339.393 7.256 339.217 7.688 339.217 8.2V31.24C339.217 31.752 339.393 32.2 339.745 32.584C340.129 32.936 340.577 33.112 341.089 33.112H369.793V37H341.089ZM374.797 37V2.488H403.597C404.653 2.488 405.613 2.76 406.477 3.304C407.373 3.816 408.077 4.504 408.589 5.368C409.101 6.232 409.357 7.192 409.357 8.248V18.376C409.357 19.432 409.101 20.392 408.589 21.256C408.077 22.12 407.373 22.824 406.477 23.368C405.613 23.88 404.653 24.136 403.597 24.136H378.685V37H374.797ZM380.557 20.2H403.597C404.109 20.2 404.541 20.024 404.893 19.672C405.277 19.32 405.469 18.888 405.469 18.376V8.248C405.469 7.736 405.277 7.304 404.893 6.952C404.541 6.568 404.109 6.376 403.597 6.376H380.557C380.045 6.376 379.597 6.568 379.213 6.952C378.861 7.304 378.685 7.736 378.685 8.248V18.376C378.685 18.888 378.861 19.32 379.213 19.672C379.597 20.024 380.045 20.2 380.557 20.2Z" fill="white"/>
</svg>
