<svg width="803" height="35" viewBox="0 0 803 35" fill="none" xmlns="http://www.w3.org/2000/svg">
<path d="M13.256 35L0.68 0.439999H4.808L14.936 28.184L25.016 0.439999H29.72L39.848 28.184L49.88 0.439999H54.104L41.528 35H38.12L27.368 5.48L16.616 35H13.256ZM58.3141 35V0.439999H62.2021V15.752H89.8021V0.439999H93.7381V35H89.8021V19.688H62.2021V35H58.3141ZM99.1903 35V6.2C99.1903 5.144 99.4463 4.184 99.9583 3.32C100.47 2.424 101.158 1.72 102.022 1.208C102.918 0.695998 103.894 0.439999 104.95 0.439999H127.99C129.046 0.439999 130.006 0.695998 130.87 1.208C131.766 1.72 132.47 2.424 132.982 3.32C133.494 4.184 133.75 5.144 133.75 6.2V35H129.862V22.376H103.078V35H99.1903ZM103.078 18.488H129.862V6.2C129.862 5.688 129.67 5.256 129.286 4.904C128.934 4.52 128.502 4.328 127.99 4.328H104.95C104.438 4.328 103.99 4.52 103.606 4.904C103.254 5.256 103.078 5.688 103.078 6.2V18.488ZM152.851 35V4.328H137.491V0.439999H172.051V4.328H156.739V35H152.851ZM189.199 35V0.439999H193.135V35H189.199ZM204.505 35C203.449 35 202.473 34.744 201.577 34.232C200.713 33.72 200.025 33.032 199.513 32.168C199.001 31.272 198.745 30.296 198.745 29.24V27.896H202.633V29.24C202.633 29.752 202.809 30.2 203.161 30.584C203.545 30.936 203.993 31.112 204.505 31.112H227.545C228.057 31.112 228.489 30.936 228.841 30.584C229.225 30.2 229.417 29.752 229.417 29.24V21.512C229.417 21 229.225 20.568 228.841 20.216C228.489 19.864 228.057 19.688 227.545 19.688H204.505C203.449 19.688 202.473 19.432 201.577 18.92C200.713 18.376 200.025 17.672 199.513 16.808C199.001 15.944 198.745 14.984 198.745 13.928V6.2C198.745 5.144 199.001 4.184 199.513 3.32C200.025 2.424 200.713 1.72 201.577 1.208C202.473 0.695998 203.449 0.439999 204.505 0.439999H227.545C228.601 0.439999 229.561 0.695998 230.425 1.208C231.321 1.72 232.025 2.424 232.537 3.32C233.049 4.184 233.305 5.144 233.305 6.2V7.544H229.417V6.2C229.417 5.688 229.225 5.256 228.841 4.904C228.489 4.52 228.057 4.328 227.545 4.328H204.505C203.993 4.328 203.545 4.52 203.161 4.904C202.809 5.256 202.633 5.688 202.633 6.2V13.928C202.633 14.44 202.809 14.872 203.161 15.224C203.545 15.576 203.993 15.752 204.505 15.752H227.545C228.601 15.752 229.561 16.024 230.425 16.568C231.321 17.08 232.025 17.768 232.537 18.632C233.049 19.496 233.305 20.456 233.305 21.512V29.24C233.305 30.296 233.049 31.272 232.537 32.168C232.025 33.032 231.321 33.72 230.425 34.232C229.561 34.744 228.601 35 227.545 35H204.505Z" fill="white"/>
<path d="M258.012 35C256.828 35 255.74 34.712 254.748 34.136C253.756 33.56 252.972 32.776 252.396 31.784C251.82 30.792 251.532 29.704 251.532 28.52V6.92C251.532 5.736 251.82 4.648 252.396 3.656C252.972 2.664 253.756 1.88 254.748 1.304C255.74 0.727999 256.828 0.439999 258.012 0.439999H285.996V6.248H259.02C258.508 6.248 258.092 6.408 257.772 6.728C257.452 7.016 257.292 7.416 257.292 7.928V27.512C257.292 28.024 257.452 28.44 257.772 28.76C258.092 29.048 258.508 29.192 259.02 29.192H285.996V35H258.012ZM318.937 35L308.329 22.328H315.865L325.417 33.656V35H318.937ZM291.001 35V0.487998H319.081C320.265 0.487998 321.337 0.791998 322.297 1.4C323.289 1.976 324.073 2.76 324.649 3.752C325.257 4.712 325.561 5.784 325.561 6.968V16.472C325.561 17.624 325.257 18.696 324.649 19.688C324.073 20.68 323.289 21.464 322.297 22.04C321.337 22.616 320.265 22.904 319.081 22.904L296.761 22.952V35H291.001ZM297.625 17.096H318.889C319.113 17.096 319.305 17.016 319.465 16.856C319.657 16.696 319.753 16.488 319.753 16.232V7.112C319.753 6.888 319.657 6.696 319.465 6.536C319.305 6.344 319.113 6.248 318.889 6.248H297.625C297.401 6.248 297.193 6.344 297.001 6.536C296.841 6.696 296.761 6.888 296.761 7.112V16.232C296.761 16.488 296.841 16.696 297.001 16.856C297.193 17.016 297.401 17.096 297.625 17.096ZM330.706 35V0.439999H362.434V6.248H336.514V14.84H357.394V20.6H336.514V29.192H362.434V35H330.706ZM367.456 35V6.92C367.456 5.736 367.744 4.648 368.32 3.656C368.896 2.664 369.68 1.88 370.672 1.304C371.664 0.727999 372.752 0.439999 373.936 0.439999H395.536C396.72 0.439999 397.792 0.727999 398.752 1.304C399.744 1.88 400.528 2.664 401.104 3.656C401.712 4.648 402.016 5.736 402.016 6.92V35H396.208V23.144H373.216V35H367.456ZM373.216 17.384H396.208V7.112C396.208 6.856 396.112 6.648 395.92 6.488C395.76 6.328 395.568 6.248 395.344 6.248H374.08C373.856 6.248 373.648 6.328 373.456 6.488C373.296 6.648 373.216 6.856 373.216 7.112V17.384ZM420.157 35V6.248H405.757V0.439999H440.317V6.248H425.917V35H420.157ZM444.003 35V0.439999H475.731V6.248H449.811V14.84H470.691V20.6H449.811V29.192H475.731V35H444.003ZM494.954 35V0.487998H523.034C524.218 0.487998 525.29 0.791998 526.25 1.4C527.242 1.976 528.026 2.76 528.602 3.752C529.21 4.712 529.514 5.784 529.514 6.968V16.472C529.514 17.624 529.21 18.696 528.602 19.688C528.026 20.68 527.242 21.464 526.25 22.04C525.29 22.616 524.218 22.904 523.034 22.904L500.714 22.952V35H494.954ZM501.578 17.096H522.842C523.066 17.096 523.258 17.016 523.418 16.856C523.61 16.696 523.706 16.488 523.706 16.232V7.112C523.706 6.888 523.61 6.696 523.418 6.536C523.258 6.344 523.066 6.248 522.842 6.248H501.578C501.354 6.248 501.146 6.344 500.954 6.536C500.794 6.696 500.714 6.888 500.714 7.112V16.232C500.714 16.488 500.794 16.696 500.954 16.856C501.146 17.016 501.354 17.096 501.578 17.096ZM560.858 35L550.25 22.328H557.786L567.338 33.656V35H560.858ZM532.922 35V0.487998H561.002C562.186 0.487998 563.258 0.791998 564.218 1.4C565.21 1.976 565.994 2.76 566.57 3.752C567.178 4.712 567.482 5.784 567.482 6.968V16.472C567.482 17.624 567.178 18.696 566.57 19.688C565.994 20.68 565.21 21.464 564.218 22.04C563.258 22.616 562.186 22.904 561.002 22.904L538.682 22.952V35H532.922ZM539.546 17.096H560.81C561.034 17.096 561.226 17.016 561.386 16.856C561.578 16.696 561.674 16.488 561.674 16.232V7.112C561.674 6.888 561.578 6.696 561.386 6.536C561.226 6.344 561.034 6.248 560.81 6.248H539.546C539.322 6.248 539.114 6.344 538.922 6.536C538.762 6.696 538.682 6.888 538.682 7.112V16.232C538.682 16.488 538.762 16.696 538.922 16.856C539.114 17.016 539.322 17.096 539.546 17.096ZM578.916 35C577.732 35 576.644 34.712 575.652 34.136C574.66 33.56 573.876 32.776 573.3 31.784C572.724 30.792 572.436 29.704 572.436 28.52V6.92C572.436 5.736 572.724 4.648 573.3 3.656C573.876 2.664 574.66 1.88 575.652 1.304C576.644 0.727999 577.732 0.439999 578.916 0.439999H600.516C601.7 0.439999 602.772 0.727999 603.732 1.304C604.724 1.88 605.508 2.664 606.084 3.656C606.692 4.648 606.996 5.736 606.996 6.92V28.52C606.996 29.704 606.692 30.792 606.084 31.784C605.508 32.776 604.724 33.56 603.732 34.136C602.772 34.712 601.7 35 600.516 35H578.916ZM579.06 29.192H600.324C600.548 29.192 600.74 29.112 600.9 28.952C601.092 28.792 601.188 28.584 601.188 28.328V7.112C601.188 6.856 601.092 6.648 600.9 6.488C600.74 6.328 600.548 6.248 600.324 6.248H579.06C578.836 6.248 578.628 6.328 578.436 6.488C578.276 6.648 578.196 6.856 578.196 7.112V28.328C578.196 28.584 578.276 28.792 578.436 28.952C578.628 29.112 578.836 29.192 579.06 29.192ZM624.954 35V6.248H610.554V0.439999H645.114V6.248H630.714V35H624.954ZM655.088 35C653.904 35 652.816 34.712 651.824 34.136C650.832 33.56 650.048 32.776 649.472 31.784C648.896 30.792 648.608 29.704 648.608 28.52V6.92C648.608 5.736 648.896 4.648 649.472 3.656C650.048 2.664 650.832 1.88 651.824 1.304C652.816 0.727999 653.904 0.439999 655.088 0.439999H676.688C677.872 0.439999 678.944 0.727999 679.904 1.304C680.896 1.88 681.68 2.664 682.256 3.656C682.864 4.648 683.168 5.736 683.168 6.92V28.52C683.168 29.704 682.864 30.792 682.256 31.784C681.68 32.776 680.896 33.56 679.904 34.136C678.944 34.712 677.872 35 676.688 35H655.088ZM655.232 29.192H676.496C676.72 29.192 676.912 29.112 677.072 28.952C677.264 28.792 677.36 28.584 677.36 28.328V7.112C677.36 6.856 677.264 6.648 677.072 6.488C676.912 6.328 676.72 6.248 676.496 6.248H655.232C655.008 6.248 654.8 6.328 654.608 6.488C654.448 6.648 654.368 6.856 654.368 7.112V28.328C654.368 28.584 654.448 28.792 654.608 28.952C654.8 29.112 655.008 29.192 655.232 29.192ZM694.934 35C693.75 35 692.662 34.712 691.67 34.136C690.678 33.56 689.894 32.776 689.318 31.784C688.742 30.792 688.454 29.704 688.454 28.52V6.92C688.454 5.736 688.742 4.648 689.318 3.656C689.894 2.664 690.678 1.88 691.67 1.304C692.662 0.727999 693.75 0.439999 694.934 0.439999H722.918V6.248H695.942C695.43 6.248 695.014 6.408 694.694 6.728C694.374 7.016 694.214 7.416 694.214 7.928V27.512C694.214 28.024 694.374 28.44 694.694 28.76C695.014 29.048 695.43 29.192 695.942 29.192H722.918V35H694.934ZM734.306 35C733.122 35 732.034 34.712 731.042 34.136C730.05 33.56 729.266 32.776 728.69 31.784C728.114 30.792 727.826 29.704 727.826 28.52V6.92C727.826 5.736 728.114 4.648 728.69 3.656C729.266 2.664 730.05 1.88 731.042 1.304C732.034 0.727999 733.122 0.439999 734.306 0.439999H755.906C757.09 0.439999 758.162 0.727999 759.122 1.304C760.114 1.88 760.898 2.664 761.474 3.656C762.082 4.648 762.386 5.736 762.386 6.92V28.52C762.386 29.704 762.082 30.792 761.474 31.784C760.898 32.776 760.114 33.56 759.122 34.136C758.162 34.712 757.09 35 755.906 35H734.306ZM734.45 29.192H755.714C755.938 29.192 756.13 29.112 756.29 28.952C756.482 28.792 756.578 28.584 756.578 28.328V7.112C756.578 6.856 756.482 6.648 756.29 6.488C756.13 6.328 755.938 6.248 755.714 6.248H734.45C734.226 6.248 734.018 6.328 733.826 6.488C733.666 6.648 733.586 6.856 733.586 7.112V28.328C733.586 28.584 733.666 28.792 733.826 28.952C734.018 29.112 734.226 29.192 734.45 29.192ZM767.72 35V0.391999H773.48V29.192H802.28V35H767.72Z" fill="#6280FF"/>
</svg>
