<svg width="743" height="190" viewBox="0 0 743 190" fill="none" xmlns="http://www.w3.org/2000/svg">
<g filter="url(#filter0_d_1_438)">
<path d="M17.7386 74C15.3735 74 13.2153 73.4383 11.264 72.3148C9.37191 71.1323 7.83456 69.5949 6.65199 67.7028C5.52854 65.7515 4.96682 63.5933 4.96682 61.2282V22.9127C4.96682 20.5476 5.52854 18.4189 6.65199 16.5268C7.83456 14.5756 9.37191 13.0382 11.264 11.9148C13.2153 10.7322 15.3735 10.1409 17.7386 10.1409H68.6485V23.0014H20.7542C19.8081 23.0014 19.069 23.2675 18.5369 23.7997C18.0047 24.2727 17.7386 25.0118 17.7386 26.017V58.1239C17.7386 59.07 18.0047 59.8091 18.5369 60.3412C19.069 60.8734 19.8081 61.1395 20.7542 61.1395H68.6485V74H17.7386ZM81.9761 74V35.0637C81.9761 32.8168 82.5378 30.7473 83.6612 28.8552C84.8438 26.9631 86.3812 25.4553 88.2733 24.3318C90.2245 23.1492 92.3236 22.558 94.5705 22.558H123.041V35.1524H95.1026C94.9844 35.1524 94.8661 35.2115 94.7479 35.3298C94.6296 35.448 94.5705 35.5663 94.5705 35.6845V74H81.9761ZM146.119 74C143.872 74 141.803 73.4383 139.911 72.3148C138.019 71.1323 136.481 69.5949 135.299 67.7028C134.175 65.8107 133.614 63.7412 133.614 61.4943V35.0637C133.614 32.8168 134.175 30.7473 135.299 28.8552C136.481 26.9631 138.019 25.4553 139.911 24.3318C141.803 23.1492 143.872 22.558 146.119 22.558H173.259C175.565 22.558 177.664 23.1492 179.557 24.3318C181.449 25.4553 182.956 26.9631 184.08 28.8552C185.203 30.7473 185.765 32.8168 185.765 35.0637V54.6649H146.208V60.8734C146.208 60.9917 146.267 61.1099 146.385 61.2282C146.504 61.3464 146.622 61.4056 146.74 61.4056H185.765V74H146.119ZM146.208 43.4009H173.171V35.6845C173.171 35.5663 173.112 35.448 172.993 35.3298C172.875 35.2115 172.757 35.1524 172.639 35.1524H146.74C146.622 35.1524 146.504 35.2115 146.385 35.3298C146.267 35.448 146.208 35.5663 146.208 35.6845V43.4009ZM212.052 74C209.805 74 207.706 73.4383 205.755 72.3148C203.863 71.1323 202.355 69.5949 201.232 67.7028C200.108 65.8107 199.546 63.7412 199.546 61.4943V41.8931H239.104V35.6845C239.104 35.5663 239.045 35.448 238.926 35.3298C238.808 35.2115 238.69 35.1524 238.571 35.1524H199.546V22.558H239.192C241.498 22.558 243.597 23.1492 245.49 24.3318C247.382 25.4553 248.889 26.9631 250.013 28.8552C251.136 30.7473 251.698 32.8168 251.698 35.0637V74H212.052ZM212.673 61.4056H239.104V53.1571H212.141V60.8734C212.141 60.9917 212.2 61.1099 212.318 61.2282C212.437 61.3464 212.555 61.4056 212.673 61.4056ZM278.247 74C275.941 74 273.842 73.4383 271.95 72.3148C270.058 71.1323 268.52 69.5949 267.338 67.7028C266.214 65.8107 265.653 63.7412 265.653 61.4943V7.03665H278.247V22.558H297.848V35.1524H278.247V60.8734C278.247 60.9917 278.306 61.1099 278.425 61.2282C278.543 61.3464 278.661 61.4056 278.779 61.4056H297.848V74H278.247ZM309.581 74V22.558H322.176V74H309.581ZM309.581 18.3894V5.70625H322.176V18.3894H309.581ZM360.261 74L331.967 22.558H346.513L365.848 58.2126L385.272 22.558H399.818L371.436 74H360.261ZM410.002 74V22.558H422.597V74H410.002ZM410.002 18.3894V5.70625H422.597V18.3894H410.002ZM448.6 74C446.294 74 444.195 73.4383 442.303 72.3148C440.411 71.1323 438.874 69.5949 437.691 67.7028C436.568 65.8107 436.006 63.7412 436.006 61.4943V7.03665H448.6V22.558H468.202V35.1524H448.6V60.8734C448.6 60.9917 448.66 61.1099 448.778 61.2282C448.896 61.3464 449.014 61.4056 449.133 61.4056H468.202V74H448.6ZM488.078 92.7143V80.0311H518.854C518.973 80.0311 519.091 79.972 519.209 79.8537C519.327 79.7355 519.387 79.6172 519.387 79.499V74H492.335C490.029 74 487.93 73.4383 486.038 72.3148C484.146 71.1323 482.608 69.5949 481.426 67.7028C480.302 65.8107 479.741 63.7412 479.741 61.4943V22.7353H492.335V60.8734C492.335 60.9917 492.394 61.1099 492.513 61.2282C492.631 61.3464 492.749 61.4056 492.867 61.4056H518.854C518.973 61.4056 519.091 61.3464 519.209 61.2282C519.327 61.1099 519.387 60.9917 519.387 60.8734V22.7353H531.981V80.2085C531.981 82.5145 531.419 84.6136 530.296 86.5057C529.232 88.3979 527.724 89.9056 525.772 91.0291C523.88 92.1525 521.781 92.7143 519.475 92.7143H488.078ZM5.1442 181V117.141H58.3601C60.3114 117.141 62.0852 117.614 63.6817 118.56C65.3373 119.506 66.6381 120.807 67.5842 122.463C68.5303 124.059 69.0033 125.833 69.0033 127.784V170.357C69.0033 172.308 68.5303 174.111 67.5842 175.767C66.6381 177.364 65.3373 178.635 63.6817 179.581C62.0852 180.527 60.3114 181 58.3601 181H5.1442ZM15.7874 173.816H58.3601C59.3062 173.816 60.1044 173.491 60.7548 172.84C61.4644 172.131 61.8191 171.303 61.8191 170.357V127.784C61.8191 126.838 61.4644 126.04 60.7548 125.389C60.1044 124.68 59.3062 124.325 58.3601 124.325H15.7874C14.8413 124.325 14.0135 124.68 13.304 125.389C12.6536 126.04 12.3284 126.838 12.3284 127.784V170.357C12.3284 171.303 12.6536 172.131 13.304 172.84C14.0135 173.491 14.8413 173.816 15.7874 173.816ZM93.6586 181C91.7074 181 89.9039 180.527 88.2483 179.581C86.6518 178.576 85.351 177.275 84.3458 175.678C83.3998 174.023 82.9267 172.219 82.9267 170.268V140.29C82.9267 138.339 83.3998 136.565 84.3458 134.968C85.351 133.313 86.6518 132.012 88.2483 131.066C89.9039 130.061 91.7074 129.558 93.6586 129.558H124.524C126.534 129.558 128.338 130.061 129.934 131.066C131.59 132.012 132.891 133.313 133.837 134.968C134.842 136.565 135.344 138.339 135.344 140.29V158.915H90.1996V170.268C90.1996 171.214 90.5248 172.042 91.1752 172.752C91.8847 173.402 92.7125 173.727 93.6586 173.727H135.344V181H93.6586ZM90.1996 151.643H127.983V140.29C127.983 139.344 127.628 138.546 126.919 137.895C126.268 137.186 125.47 136.831 124.524 136.831H93.6586C92.7125 136.831 91.8847 137.186 91.1752 137.895C90.5248 138.546 90.1996 139.344 90.1996 140.29V151.643ZM157.771 181C155.819 181 154.016 180.527 152.36 179.581C150.764 178.576 149.463 177.275 148.458 175.678C147.512 174.023 147.039 172.219 147.039 170.268V140.29C147.039 138.339 147.512 136.565 148.458 134.968C149.463 133.313 150.764 132.012 152.36 131.066C154.016 130.061 155.819 129.558 157.771 129.558H199.279V136.831H157.771C156.825 136.831 155.997 137.186 155.287 137.895C154.637 138.546 154.312 139.344 154.312 140.29V170.268C154.312 171.214 154.637 172.042 155.287 172.752C155.997 173.402 156.825 173.727 157.771 173.727H199.456V181H157.771ZM221.623 181C219.672 181 217.868 180.527 216.212 179.581C214.616 178.576 213.315 177.275 212.31 175.678C211.364 174.023 210.891 172.219 210.891 170.268V140.29C210.891 138.339 211.364 136.565 212.31 134.968C213.315 133.313 214.616 132.012 216.212 131.066C217.868 130.061 219.672 129.558 221.623 129.558H252.488C254.498 129.558 256.302 130.061 257.898 131.066C259.554 132.012 260.855 133.313 261.801 134.968C262.806 136.565 263.309 138.339 263.309 140.29V158.915H218.164V170.268C218.164 171.214 218.489 172.042 219.139 172.752C219.849 173.402 220.677 173.727 221.623 173.727H263.309V181H221.623ZM218.164 151.643H255.947V140.29C255.947 139.344 255.592 138.546 254.883 137.895C254.232 137.186 253.434 136.831 252.488 136.831H221.623C220.677 136.831 219.849 137.186 219.139 137.895C218.489 138.546 218.164 139.344 218.164 140.29V151.643ZM277.001 181V129.558H318.687C320.638 129.558 322.412 130.061 324.009 131.066C325.664 132.012 326.965 133.313 327.911 134.968C328.916 136.565 329.419 138.339 329.419 140.29V181H322.146V140.29C322.146 139.344 321.791 138.546 321.082 137.895C320.431 137.186 319.633 136.831 318.687 136.831H287.822C286.876 136.831 286.048 137.186 285.338 137.895C284.629 138.546 284.274 139.344 284.274 140.29V181H277.001ZM353.835 181C351.825 181 349.992 180.527 348.336 179.581C346.74 178.576 345.468 177.275 344.522 175.678C343.576 174.023 343.103 172.219 343.103 170.268V112.706H350.376V129.558H372.638V136.831H350.376V170.268C350.376 171.214 350.701 172.042 351.352 172.752C352.061 173.402 352.889 173.727 353.835 173.727H372.638V181H353.835ZM383.827 181V140.29C383.827 138.339 384.3 136.565 385.246 134.968C386.252 133.313 387.552 132.012 389.149 131.066C390.805 130.061 392.608 129.558 394.559 129.558H423.473V136.831H394.559C393.613 136.831 392.785 137.186 392.076 137.895C391.425 138.546 391.1 139.344 391.1 140.29V181H383.827ZM444.38 181C442.429 181 440.625 180.527 438.97 179.581C437.373 178.576 436.072 177.275 435.067 175.678C434.121 174.023 433.648 172.219 433.648 170.268V151.643H478.704V140.29C478.704 139.344 478.349 138.546 477.64 137.895C476.989 137.186 476.191 136.831 475.245 136.831H433.648V129.558H475.245C477.255 129.558 479.059 130.061 480.655 131.066C482.311 132.012 483.612 133.313 484.558 134.968C485.563 136.565 486.066 138.339 486.066 140.29V181H444.38ZM444.38 173.727H478.704V158.915H440.921V170.268C440.921 171.214 441.246 172.042 441.896 172.752C442.606 173.402 443.434 173.727 444.38 173.727ZM509.531 181C507.58 181 505.777 180.527 504.121 179.581C502.524 178.576 501.224 177.275 500.218 175.678C499.272 174.023 498.799 172.219 498.799 170.268V112.706H506.072V170.268C506.072 171.214 506.397 172.042 507.048 172.752C507.757 173.402 508.585 173.727 509.531 173.727H518.223V181H509.531ZM529.998 181V129.558H537.271V181H529.998ZM529.998 119.979V112.706H537.271V119.979H529.998ZM563.258 181C561.307 181 559.504 180.527 557.848 179.581C556.252 178.576 554.951 177.275 553.946 175.678C553 174.023 552.527 172.219 552.527 170.268V169.559H559.799V170.268C559.799 171.214 560.125 172.042 560.775 172.752C561.485 173.402 562.312 173.727 563.258 173.727H594.124C595.07 173.727 595.868 173.402 596.518 172.752C597.228 172.042 597.583 171.214 597.583 170.268V162.374C597.583 161.428 597.228 160.63 596.518 159.98C595.868 159.27 595.07 158.915 594.124 158.915H563.258C561.307 158.915 559.504 158.442 557.848 157.496C556.252 156.491 554.951 155.19 553.946 153.594C553 151.938 552.527 150.135 552.527 148.184V140.29C552.527 138.339 553 136.565 553.946 134.968C554.951 133.313 556.252 132.012 557.848 131.066C559.504 130.061 561.307 129.558 563.258 129.558H594.124C596.134 129.558 597.938 130.061 599.534 131.066C601.19 132.012 602.49 133.313 603.437 134.968C604.442 136.565 604.944 138.339 604.944 140.29V140.999H597.583V140.29C597.583 139.344 597.228 138.546 596.518 137.895C595.868 137.186 595.07 136.831 594.124 136.831H563.258C562.312 136.831 561.485 137.186 560.775 137.895C560.125 138.546 559.799 139.344 559.799 140.29V148.184C559.799 149.13 560.125 149.957 560.775 150.667C561.485 151.317 562.312 151.643 563.258 151.643H594.124C596.134 151.643 597.938 152.145 599.534 153.15C601.19 154.096 602.49 155.397 603.437 157.053C604.442 158.649 604.944 160.423 604.944 162.374V170.268C604.944 172.219 604.442 174.023 603.437 175.678C602.49 177.275 601.19 178.576 599.534 179.581C597.938 180.527 596.134 181 594.124 181H563.258ZM627.463 181C625.512 181 623.709 180.527 622.053 179.581C620.457 178.576 619.156 177.275 618.151 175.678C617.205 174.023 616.731 172.219 616.731 170.268V140.29C616.731 138.339 617.205 136.565 618.151 134.968C619.156 133.313 620.457 132.012 622.053 131.066C623.709 130.061 625.512 129.558 627.463 129.558H658.329C660.339 129.558 662.142 130.061 663.739 131.066C665.394 132.012 666.695 133.313 667.641 134.968C668.647 136.565 669.149 138.339 669.149 140.29V158.915H624.004V170.268C624.004 171.214 624.33 172.042 624.98 172.752C625.689 173.402 626.517 173.727 627.463 173.727H669.149V181H627.463ZM624.004 151.643H661.788V140.29C661.788 139.344 661.433 138.546 660.723 137.895C660.073 137.186 659.275 136.831 658.329 136.831H627.463C626.517 136.831 625.689 137.186 624.98 137.895C624.33 138.546 624.004 139.344 624.004 140.29V151.643ZM690.913 181C688.903 181 687.07 180.527 685.414 179.581C683.817 178.576 682.517 177.275 681.511 175.678C680.565 174.023 680.092 172.219 680.092 170.268V140.29C680.092 138.339 680.565 136.565 681.511 134.968C682.517 133.313 683.817 132.012 685.414 131.066C687.07 130.061 688.903 129.558 690.913 129.558H725.237V112.706H732.51V181H690.913ZM690.913 173.727H721.778C722.724 173.727 723.522 173.402 724.173 172.752C724.882 172.042 725.237 171.214 725.237 170.268V140.29C725.237 139.344 724.882 138.546 724.173 137.895C723.522 137.186 722.724 136.831 721.778 136.831H690.913C689.967 136.831 689.139 137.186 688.429 137.895C687.779 138.546 687.454 139.344 687.454 140.29V170.268C687.454 171.214 687.779 172.042 688.429 172.752C689.139 173.402 689.967 173.727 690.913 173.727Z" fill="white"/>
</g>
<defs>
<filter id="filter0_d_1_438" x="0.966797" y="0.706299" width="741.543" height="189.294" filterUnits="userSpaceOnUse" color-interpolation-filters="sRGB">
<feFlood flood-opacity="0" result="BackgroundImageFix"/>
<feColorMatrix in="SourceAlpha" type="matrix" values="0 0 0 0 0 0 0 0 0 0 0 0 0 0 0 0 0 0 127 0" result="hardAlpha"/>
<feOffset dx="3" dy="2"/>
<feGaussianBlur stdDeviation="3.5"/>
<feComposite in2="hardAlpha" operator="out"/>
<feColorMatrix type="matrix" values="0 0 0 0 0 0 0 0 0 0 0 0 0 0 0 0 0 0 1 0"/>
<feBlend mode="normal" in2="BackgroundImageFix" result="effect1_dropShadow_1_438"/>
<feBlend mode="normal" in="SourceGraphic" in2="effect1_dropShadow_1_438" result="shape"/>
</filter>
</defs>
</svg>
